<svg xmlns="http://www.w3.org/2000/svg" xmlns:xlink="http://www.w3.org/1999/xlink" viewBox="0 0 248.83 247.33"><defs><linearGradient id="linear-gradient" x1="-1146.19" x2="-1147.27" y1="109.07" y2="142.4" gradientTransform="matrix(-1 0 0 1 -1097.59 0)" gradientUnits="userSpaceOnUse"><stop offset="0"/><stop offset=".16" stop-color="#fff"/><stop offset=".84" stop-color="#fff"/><stop offset="1"/></linearGradient><linearGradient id="linear-gradient-2" x1="-1151.98" x2="-1148.24" y1="124.61" y2="125.93" gradientTransform="matrix(-1 0 0 1 -1097.59 0)" gradientUnits="userSpaceOnUse"><stop offset="0" stop-color="#383838"/><stop offset="1" stop-color="#fff"/></linearGradient><linearGradient id="linear-gradient-3" x1="-1150.57" x2="-1151.91" y1="167.39" y2="151.96" gradientTransform="matrix(-1 0 0 1 -1097.59 0)" gradientUnits="userSpaceOnUse"><stop offset=".29" stop-color="#f6d2a4"/><stop offset=".43" stop-color="#f4ce9e"/><stop offset=".61" stop-color="#f0c38f"/><stop offset=".8" stop-color="#e9b275"/><stop offset=".82" stop-color="#e8b072"/><stop offset=".83" stop-color="#e2a96c"/><stop offset=".85" stop-color="#d1975b"/><stop offset=".88" stop-color="#c68a4f"/><stop offset=".92" stop-color="#bf8248"/><stop offset="1" stop-color="#bd8046"/></linearGradient><linearGradient id="linear-gradient-4" x1="-1163.92" x2="-1156.22" y1="159.84" y2="147.59" gradientTransform="matrix(-1 0 0 1 -1097.59 0)" gradientUnits="userSpaceOnUse"><stop offset="0" stop-color="#e5a75c"/><stop offset=".17" stop-color="#e5a75c"/><stop offset=".44" stop-color="#f0c59c"/><stop offset=".67" stop-color="#e5a75c"/><stop offset=".84" stop-color="#e5a75c"/><stop offset=".88" stop-color="#cc8447"/><stop offset=".93" stop-color="#b56333"/><stop offset=".97" stop-color="#a74f27"/><stop offset="1" stop-color="#a24823"/></linearGradient><linearGradient id="linear-gradient-5" x1="-1163.57" x2="-1144.51" y1="142.43" y2="148.19" gradientTransform="matrix(-1 0 0 1 -1097.59 0)" gradientUnits="userSpaceOnUse"><stop offset="0" stop-color="#acacad"/><stop offset=".04" stop-color="#e4e0df"/><stop offset=".26" stop-color="#959594"/><stop offset=".45" stop-color="#454545"/><stop offset=".76" stop-color="#2a2122"/><stop offset=".81" stop-color="#282122"/><stop offset=".86" stop-color="#2a2a2a"/><stop offset=".91" stop-color="#463e42"/><stop offset=".96" stop-color="#706b6c"/><stop offset="1" stop-color="#adaeae"/></linearGradient><linearGradient id="linear-gradient-6" x1="-1145.25" x2="-1145.31" y1="142.86" y2="144.87" gradientTransform="matrix(-1 0 0 1 -1097.59 0)" gradientUnits="userSpaceOnUse"><stop offset="0" stop-color="#f6d2a4"/><stop offset=".44" stop-color="#e3a969"/><stop offset="1" stop-color="#d0853e"/></linearGradient><linearGradient id="linear-gradient-7" x1="-1146.19" x2="-1147.27" y1="109.07" y2="142.4" gradientTransform="matrix(-1 0 0 1 -1097.59 0)" gradientUnits="userSpaceOnUse"><stop offset="0" stop-color="#fff"/><stop offset=".16" stop-color="#fff"/><stop offset=".84" stop-color="#fff"/><stop offset="1" stop-color="#fff"/></linearGradient><linearGradient id="linear-gradient-8" x1="-1148.09" x2="-1145.7" y1="111.8" y2="111.75" gradientTransform="matrix(-1 0 0 1 -1097.59 0)" gradientUnits="userSpaceOnUse"><stop offset=".32" stop-color="#302d59"/><stop offset="1" stop-color="#0095bf"/></linearGradient><linearGradient id="GradientFill_6" x1="980.03" x2="1030.59" y1="120.32" y2="120.32" gradientTransform="matrix(-1 0 0 1 1134.77 0)" gradientUnits="userSpaceOnUse"><stop offset="0" stop-color="#d9d8d8"/><stop offset=".08" stop-color="#71716f"/><stop offset=".2" stop-color="#d9d8d8"/><stop offset=".32" stop-color="#fff"/><stop offset=".5" stop-color="#d9d8d8"/><stop offset=".63" stop-color="#b2b2b2"/><stop offset=".9" stop-color="#595756"/><stop offset=".96" stop-color="#9e9c9c"/><stop offset="1" stop-color="#d9d8d8"/></linearGradient><linearGradient id="GradientFill_5" x1="980.85" x2="1029.78" y1="89.41" y2="89.41" gradientTransform="matrix(-1 0 0 1 1134.77 0)" gradientUnits="userSpaceOnUse"><stop offset="0" stop-color="#3a3a38"/><stop offset=".15" stop-color="#9e9c9c"/><stop offset=".9" stop-color="#595756"/><stop offset="1" stop-color="#3a3a38"/></linearGradient><linearGradient id="GradientFill_4" x1="981.74" x2="1028.88" y1="88.9" y2="88.9" gradientTransform="matrix(-1 0 0 1 1134.77 0)" gradientUnits="userSpaceOnUse"><stop offset="0" stop-color="#d9d8d8"/><stop offset=".08" stop-color="#9e9c9c"/><stop offset=".2" stop-color="#d9d8d8"/><stop offset=".32" stop-color="#fff"/><stop offset=".5" stop-color="#d9d8d8"/><stop offset=".63" stop-color="#b2b2b2"/><stop offset=".9" stop-color="#595756"/><stop offset=".96" stop-color="#9e9c9c"/><stop offset="1" stop-color="#d9d8d8"/></linearGradient><linearGradient id="GradientFill_3" x1="982.77" x2="1028.01" y1="88.78" y2="88.78" gradientTransform="matrix(-1 0 0 1 1134.77 0)" gradientUnits="userSpaceOnUse"><stop offset="0" stop-color="#fff"/><stop offset=".29" stop-color="#fff"/><stop offset=".76" stop-color="#d9d8d8"/><stop offset="1" stop-color="#d9d8d8"/></linearGradient><linearGradient id="GradientFill_2" x1="980.15" x2="1030.48" y1="88.29" y2="88.29" gradientTransform="matrix(-1 0 0 1 1134.77 0)" gradientUnits="userSpaceOnUse"><stop offset="0" stop-color="#d9d8d8"/><stop offset=".08" stop-color="#9e9c9c"/><stop offset=".9" stop-color="#595756"/><stop offset="1" stop-color="#d9d8d8"/></linearGradient><linearGradient xlink:href="#GradientFill_2" id="GradientFill_2-2" x1="980.15" x2="1030.48" y1="89.52" y2="89.52"/><linearGradient xlink:href="#GradientFill_5" id="GradientFill_5-2" x1="979.21" x2="1031.42" y1="151.57" y2="151.57"/><linearGradient xlink:href="#GradientFill_4" id="GradientFill_4-2" x1="980.16" x2="1030.46" y1="152.08" y2="152.08"/><linearGradient xlink:href="#GradientFill_3" id="GradientFill_3-2" x1="981.26" x2="1029.53" y1="152.11" y2="152.11"/><linearGradient xlink:href="#GradientFill_2" id="GradientFill_2-3" x1="978.46" x2="1032.16" y1="152.7" y2="152.7"/><linearGradient xlink:href="#GradientFill_2" id="GradientFill_2-4" x1="978.46" x2="1032.16" y1="151.47" y2="151.47"/><linearGradient xlink:href="#GradientFill_6" id="GradientFill_6-2" x1="1001.44" x2="1044.02" y1="138.32" y2="138.32"/><linearGradient xlink:href="#GradientFill_5" id="GradientFill_5-3" x1="1002.13" x2="1043.34" y1="113.96" y2="113.96"/><linearGradient xlink:href="#GradientFill_4" id="GradientFill_4-3" x1="1002.88" x2="1042.58" y1="113.56" y2="113.56"/><linearGradient xlink:href="#GradientFill_3" id="GradientFill_3-3" x1="1003.74" x2="1041.85" y1="113.46" y2="113.46"/><linearGradient xlink:href="#GradientFill_2" id="GradientFill_2-5" x1="1001.54" x2="1043.92" y1="113.07" y2="113.07"/><linearGradient xlink:href="#GradientFill_2" id="GradientFill_2-6" x1="1001.54" x2="1043.92" y1="114.04" y2="114.04"/><linearGradient xlink:href="#GradientFill_5" id="GradientFill_5-4" x1="1000.75" x2="1044.72" y1="162.95" y2="162.95"/><linearGradient xlink:href="#GradientFill_4" id="GradientFill_4-4" x1="1001.55" x2="1043.91" y1="163.35" y2="163.35"/><linearGradient xlink:href="#GradientFill_3" id="GradientFill_3-4" x1="1002.47" x2="1043.13" y1="163.37" y2="163.37"/><linearGradient xlink:href="#GradientFill_2" id="GradientFill_2-7" x1="1000.12" x2="1045.35" y1="163.83" y2="163.83"/><linearGradient xlink:href="#GradientFill_2" id="GradientFill_2-8" x1="1000.12" x2="1045.35" y1="162.87" y2="162.87"/><filter id="luminosity-noclip" width="6.45" height="32766" x="45.81" y="-8565.38" color-interpolation-filters="sRGB" filterUnits="userSpaceOnUse"><feFlood flood-color="#fff" result="bg"/><feBlend in="SourceGraphic" in2="bg"/></filter><filter id="luminosity-noclip-2" width="15.18" height="32766" x="47.62" y="-8565.38" color-interpolation-filters="sRGB" filterUnits="userSpaceOnUse"><feFlood flood-color="#fff" result="bg"/><feBlend in="SourceGraphic" in2="bg"/></filter><filter id="luminosity-noclip-3" width="6.45" height="35.39" x="45.81" y="107.69" color-interpolation-filters="sRGB" filterUnits="userSpaceOnUse"><feFlood flood-color="#fff" result="bg"/><feBlend in="SourceGraphic" in2="bg"/></filter><filter id="luminosity-noclip-4" width="15.18" height="35.26" x="47.62" y="108.68" color-interpolation-filters="sRGB" filterUnits="userSpaceOnUse"><feFlood flood-color="#fff" result="bg"/><feBlend in="SourceGraphic" in2="bg"/></filter><mask id="mask" width="6.45" height="32766" x="45.81" y="-8565.38" maskUnits="userSpaceOnUse"/><mask id="mask-2" width="15.18" height="32766" x="47.62" y="-8565.38" maskUnits="userSpaceOnUse"/><mask id="mask-3" width="6.45" height="35.39" x="45.81" y="107.69" maskUnits="userSpaceOnUse"><g style="mask:url(#mask);filter:url(#luminosity-noclip-3)"><path d="M47.06 107.69c-2.12.86-1 7.87-.38 10.33 1 3.87 4.88 11.15 5.1 15.15.14 2.59-1.18 6.71-3.13 9.91a16 16 0 0 0 3.61-9.69c0-4-3.73-11.51-5-15.34-.71-2.34-1.76-8.34-.2-10.36Z" style="fill:url(#linear-gradient);mix-blend-mode:multiply"/></g></mask><mask id="mask-4" width="15.18" height="35.26" x="47.62" y="108.68" maskUnits="userSpaceOnUse"><g style="mask:url(#mask-2);filter:url(#luminosity-noclip-4)"><path d="M62.8 137.47c-1.24-1.49-4.72.09-7.67-5.34-1.81-3.33-1.92-11.31-2.67-15-.94-4.6-2.49-8.78-3.94-8.41s-1.13 6.14.29 9.76c1.55 3.94 4.17 10.6 4.92 14.29 1 4.92-3.16 8.82-3.1 11.19 1.21-.58 11.14-5.96 12.17-6.49Z" style="fill:url(#linear-gradient-2);mix-blend-mode:multiply"/></g></mask><style>.cls-6{fill:#010101}.cls-9{fill:#2a418e}.cls-17,.cls-51{fill:#fff}.cls-20{fill:#f6d2a4}.cls-31{fill:#007ebb}.cls-43{fill:#646062}.cls-50,.cls-51,.cls-75{fill-rule:evenodd}.cls-50{fill:#595756}.cls-75,.cls-76{fill:#1e110c}</style></defs><g style="isolation:isolate"><g id="Capa_2" data-name="Capa 2"><g id="Capa_1-2" data-name="Capa 1"><path d="m50 185.37 3.16 3a3.08 3.08 0 0 0-.75 1.49 2.42 2.42 0 0 0 .74 2.06 2.21 2.21 0 0 0 1.35.8 1.28 1.28 0 0 0 1.11-.32 1.32 1.32 0 0 0 .39-1 6.12 6.12 0 0 0-1-2.27 10 10 0 0 1-1.65-4.31 3.45 3.45 0 0 1 1.14-2.83 3.71 3.71 0 0 1 2-.94 4.38 4.38 0 0 1 2.48.4 9.49 9.49 0 0 1 2.89 2.26 7.6 7.6 0 0 1 2.2 3.85 4.36 4.36 0 0 1-1.15 3.44l-3.11-3a2.29 2.29 0 0 0 .54-1.49 2.4 2.4 0 0 0-.72-1.41 1.85 1.85 0 0 0-1-.65 1 1 0 0 0-.86.25.81.81 0 0 0-.22.66 3.83 3.83 0 0 0 .66 1.48 20.08 20.08 0 0 1 2 4 4.47 4.47 0 0 1 .12 2.46 3.88 3.88 0 0 1-1.14 1.88 4.52 4.52 0 0 1-2.4 1.16A4.94 4.94 0 0 1 54 196a9.1 9.1 0 0 1-2.87-2.19Q48.52 191 48.55 189a5.53 5.53 0 0 1 1.45-3.63ZM60.65 195.37a6.55 6.55 0 0 1 1.85-1.67 5 5 0 0 1 2.09-.67 5.45 5.45 0 0 1 2.25.33 8 8 0 0 1 2.31 1.32 8.49 8.49 0 0 1 1.89 2 5.29 5.29 0 0 1 .87 2.1 4.68 4.68 0 0 1-.13 2.16 6.53 6.53 0 0 1-1.16 2.16 7.19 7.19 0 0 1-1.85 1.71 4.82 4.82 0 0 1-2.06.73 5.17 5.17 0 0 1-2.23-.3 8.28 8.28 0 0 1-2.34-1.34 9.46 9.46 0 0 1-1.86-1.9 5.38 5.38 0 0 1-1-2.09 4.62 4.62 0 0 1 .09-2.21 6.68 6.68 0 0 1 1.28-2.33ZM64 198a5.31 5.31 0 0 0-.73 1.17 2.57 2.57 0 0 0-.23 1 1.59 1.59 0 0 0 .19.81 2.47 2.47 0 0 0 .57.65 2.62 2.62 0 0 0 .8.43 1.46 1.46 0 0 0 .83 0 2.42 2.42 0 0 0 .9-.5 6.38 6.38 0 0 0 1-1.08 4.59 4.59 0 0 0 .67-1.09 2.41 2.41 0 0 0 .22-1 1.6 1.6 0 0 0-.21-.81 2.26 2.26 0 0 0-1.34-1.06 1.56 1.56 0 0 0-.83 0 2.52 2.52 0 0 0-.91.46A5.06 5.06 0 0 0 64 198ZM74.91 199.24l3.65 2.11-4 7 5.1 2.95-1.56 2.6-8.75-5.06ZM91 207.34l3.9 1.59-2.42 5.95a4.7 4.7 0 0 1-2.63 2.75q-1.82.74-4.83-.49a9.47 9.47 0 0 1-2.43-1.37 4.92 4.92 0 0 1-1.36-1.62 3.91 3.91 0 0 1-.42-1.84 5.71 5.71 0 0 1 .45-2l2.42-6L87.6 206l-2.49 6.14a1.85 1.85 0 1 0 3.41 1.38ZM95.21 209l11.3 2.82-.74 3-3.6-.9-2 7.8-4.09-1 1.94-7.8-3.6-.9ZM105.39 222.71l1.64-11 4.17.62-1.64 11ZM112 218.24a6.58 6.58 0 0 1 .52-2.44 4.93 4.93 0 0 1 1.31-1.76 5.21 5.21 0 0 1 2-1 8.23 8.23 0 0 1 2.65-.29 8.83 8.83 0 0 1 2.68.49 5.41 5.41 0 0 1 1.94 1.2 4.57 4.57 0 0 1 1.15 1.83 6.26 6.26 0 0 1 .33 2.42 7.24 7.24 0 0 1-.5 2.48 4.78 4.78 0 0 1-1.25 1.79 5.11 5.11 0 0 1-2 1.07 8.31 8.31 0 0 1-2.68.28 9.49 9.49 0 0 1-2.62-.45 5.39 5.39 0 0 1-2-1.13 4.79 4.79 0 0 1-1.22-1.86 6.49 6.49 0 0 1-.31-2.63Zm4.21.17a5.68 5.68 0 0 0 .09 1.37 2.66 2.66 0 0 0 .39.93 1.63 1.63 0 0 0 .63.54 2.07 2.07 0 0 0 .84.19 2.37 2.37 0 0 0 .9-.11 1.44 1.44 0 0 0 .67-.48 2.5 2.5 0 0 0 .45-.94 6.86 6.86 0 0 0 .2-1.47 4.63 4.63 0 0 0-.1-1.29 2.47 2.47 0 0 0-.38-.9 1.69 1.69 0 0 0-.65-.54 2.14 2.14 0 0 0-.87-.2 2 2 0 0 0-.83.13 1.6 1.6 0 0 0-.67.49 2.55 2.55 0 0 0-.47.9 5.77 5.77 0 0 0-.16 1.38ZM125.87 213.13l3.91-.42 4.81 5-.59-5.47 3.92-.43 1.2 11-3.92.43-4.8-5 .6 5.43-3.93.42ZM144.22 217.66a3.07 3.07 0 0 0 .34.65 1.78 1.78 0 0 0 .49.46 1.56 1.56 0 0 0 .66.22 2.58 2.58 0 0 0 .89-.08 1.84 1.84 0 0 0 1-.57.84.84 0 0 0 .19-.75.73.73 0 0 0-.17-.34.79.79 0 0 0-.4-.21 2.78 2.78 0 0 0-.73-.08h-1.22a13 13 0 0 1-2.22-.06 5.56 5.56 0 0 1-1.6-.42 2.68 2.68 0 0 1-1-.76 2.92 2.92 0 0 1-.56-2.47 3 3 0 0 1 .69-1.28 5.2 5.2 0 0 1 1.44-1.13 9.65 9.65 0 0 1 2.28-.85 6.47 6.47 0 0 1 3.8-.06 3.49 3.49 0 0 1 2.08 2.09l-3.67 1.13a1.82 1.82 0 0 0-.72-.85 1.55 1.55 0 0 0-1.12-.07 3.56 3.56 0 0 0-.61.21 1.27 1.27 0 0 0-.35.26.59.59 0 0 0-.15.28.61.61 0 0 0 0 .3 1 1 0 0 0 .08.21.43.43 0 0 0 .22.15 2.25 2.25 0 0 0 .48.07h.85a15.46 15.46 0 0 1 3.7.07 3.75 3.75 0 0 1 1.83.83 2.9 2.9 0 0 1 .88 1.48 3.42 3.42 0 0 1 0 1.62 3.6 3.6 0 0 1-.76 1.46 5.44 5.44 0 0 1-1.5 1.19 8.86 8.86 0 0 1-2.22.86q-3.14.78-4.62-.06a4.47 4.47 0 0 1-2-2.35ZM167.09 207.18l4.11-.68a7.08 7.08 0 0 1 0 3 5.5 5.5 0 0 1-1.22 2.42 8.1 8.1 0 0 1-2.71 1.92 9.56 9.56 0 0 1-3.83 1.09 6.16 6.16 0 0 1-3.41-1 7.91 7.91 0 0 1-2.89-3.46 7.29 7.29 0 0 1-.61-5.77 7.5 7.5 0 0 1 4.13-4.11 7.68 7.68 0 0 1 4.43-.91 6.38 6.38 0 0 1 3.59 2l-3.25 2.53a3.33 3.33 0 0 0-.82-.68 2.57 2.57 0 0 0-1.18-.29 2.64 2.64 0 0 0-1.23.29 2.71 2.71 0 0 0-1.62 2.12 5.12 5.12 0 0 0 .66 2.81 5.21 5.21 0 0 0 2.09 2.61 3 3 0 0 0 3.74-1.61 4.29 4.29 0 0 0 .02-2.28ZM171.72 205.13a6.59 6.59 0 0 1-1-2.26 4.81 4.81 0 0 1 0-2.2 5.47 5.47 0 0 1 1-2 8.37 8.37 0 0 1 2-1.8 8.78 8.78 0 0 1 2.45-1.2 5.42 5.42 0 0 1 2.27-.19 4.84 4.84 0 0 1 2 .78 6.37 6.37 0 0 1 1.7 1.76 7.32 7.32 0 0 1 1.07 2.28 4.93 4.93 0 0 1 .07 2.19 5.17 5.17 0 0 1-1 2 8.46 8.46 0 0 1-2 1.83 9.4 9.4 0 0 1-2.37 1.19 5.31 5.31 0 0 1-2.27.27 4.74 4.74 0 0 1-2.09-.76 6.51 6.51 0 0 1-1.83-1.89Zm3.48-2.37a5.52 5.52 0 0 0 .9 1.05 2.57 2.57 0 0 0 .86.52 1.69 1.69 0 0 0 .83.06 2.21 2.21 0 0 0 .79-.35 2.28 2.28 0 0 0 .65-.62 1.46 1.46 0 0 0 .26-.79 2.55 2.55 0 0 0-.2-1 7 7 0 0 0-.72-1.3 5 5 0 0 0-.84-1 2.3 2.3 0 0 0-.84-.49 1.73 1.73 0 0 0-.84-.06 2.37 2.37 0 0 0-.82.36 2.14 2.14 0 0 0-.6.6 1.63 1.63 0 0 0-.24.79 2.53 2.53 0 0 0 .16 1 5.43 5.43 0 0 0 .65 1.23ZM187.22 201l-7.42-8.24 5.19-4.69c1.31-1.17 2.4-1.75 3.27-1.73a3.12 3.12 0 0 1 3 3.09 4.09 4.09 0 0 1-.92 2.28 3.78 3.78 0 0 1 .78-.29 2.87 2.87 0 0 1 .68-.1 2.6 2.6 0 0 1 .63 0 3.92 3.92 0 0 1 .59.15l3.46 1.11-3.43 3.09-3.67-1.16a4.07 4.07 0 0 0-.62-.16 1.57 1.57 0 0 0-.48 0 1.16 1.16 0 0 0-.41.13 2.7 2.7 0 0 0-.36.26l-.13.13 2.94 3.27Zm-1.28-7.73 1-.91a3.87 3.87 0 0 0 .61-.65 1.62 1.62 0 0 0 .25-.54.81.81 0 0 0 0-.44 1.33 1.33 0 0 0-.23-.37 1.21 1.21 0 0 0-.37-.29.69.69 0 0 0-.43-.05 1.53 1.53 0 0 0-.53.2 5.42 5.42 0 0 0-.66.51l-1.05.95ZM189.13 184.17l4.26-4.94a4.54 4.54 0 0 1 2.73-1.74 3.39 3.39 0 0 1 2.7 1 4 4 0 0 1 1 1.25 3.09 3.09 0 0 1 .32 1.43 3.84 3.84 0 0 1-.38 1.58 7.1 7.1 0 0 1-1.13 1.71l-1.18 1.36 2.83 2.44-2.76 3.19Zm6.41 0 .58-.67a1.53 1.53 0 0 0 .41-.91 1 1 0 0 0-.39-.83 1.09 1.09 0 0 0-.86-.32 1.17 1.17 0 0 0-.79.46l-.68.78ZM221.42 119.56v3.51c0 .5-.18.63-.66.64-2.3 0-4.6.07-6.9.15-.61 0-.77-.2-.77-.78a90.46 90.46 0 0 0-.73-11.63c-.17-1.31-.35-2.61-.55-3.92a4.11 4.11 0 0 1 .21-2 1.64 1.64 0 0 1 1.25-1.18c2.75-.63 5.5-1.29 8.25-1.95a1.5 1.5 0 0 1 1.6.57 4.69 4.69 0 0 1 1 2.36 108.23 108.23 0 0 1 1.37 12.82c.07 1.59.1 3.17.18 4.75 0 .52-.08.73-.66.76-1.79.09-1.79.11-1.85-1.7a120.3 120.3 0 0 0-1.07-13.54c-.14-1-.13-1-1-.82-2 .35-3.92.75-5.89 1.07-.57.1-.67.33-.59.83.42 2.88.65 5.77.85 8.67 0 .43.16.6.61.55s1.21 0 1.81-.1c.87-.06.88-.07.85-.91-.05-1.66-.2-3.32-.4-5-.14-1.19-.15-1.19 1-1.33 1.33-.16 1.32-.16 1.49 1.15.29 2.35.39 4.69.6 7.03ZM54.61 69.6c-.36-1.86-.74-3.74-1.08-5.63-.22-1.22-.37-2.46-.58-3.69a1.47 1.47 0 0 1 .44-1.42c.84-.8 1.62-1.67 2.39-2.47l8.4 8.33-2.81 2.5-4.07-3.72c.12 1.56.47 2.88.69 4.22a12.29 12.29 0 0 0 .47 2.1c.24.67-.05 1.09-.37 1.64a3.42 3.42 0 0 1-3.62 1.84 16.2 16.2 0 0 0-2.6.1c-.74 0-1.48.14-2.23.22 0 .39.28.45.47.58 1.15.8 2.29 1.6 3.46 2.37.4.26.46.48.18.89-.61.9-1.17 1.84-1.8 2.83l-9.9-6.14C42.74 73 43.4 72 44 70.93c.31-.52.84-.46 1.31-.52 2.84-.38 5.71-.56 8.58-.68a1 1 0 0 0 .72-.13ZM214.06 87.73l-6.82 2.84c-.53-1.25-1.05-2.47-1.6-3.78L217 81.42c.67 1.28 1.13 2.55 1.66 3.79a1.41 1.41 0 0 1-.09 1A103.6 103.6 0 0 1 215 96.48l-.2.51c.25.31.51.11.73 0l5.66-1.61c.7-.19.71-.18.9.54.29 1.09.57 2.19.83 3.29.19.77.16.81-.6 1-2.44.63-4.9 1.24-7.35 1.86-1.13.29-2.26.58-3.39.89-.45.12-.7 0-.81-.46-.22-1-.45-2.07-.74-3.08a1.82 1.82 0 0 1 .2-1.3 92.85 92.85 0 0 0 3.52-9.43c.13-.22.19-.5.31-.96ZM193.12 60.11l5.47-5a34.77 34.77 0 0 1 3 3c-.28.26-.49.47-.72.67-2.7 2.36-5.41 4.71-8.1 7.08-.43.38-.69.46-1.09 0-.66-.77-1.62-1.39-2-2.26a8.92 8.92 0 0 1-.24-2.91c-.13-2.51-.41-5-.82-7.76l-4.9 5.51-2.84-2.14c-.11-.29.08-.41.19-.54q3.45-4.28 6.92-8.54c.53-.66.55-.65 1.23-.15l.91.67c1.72 1.31 1.7 1.31 2 3.5.48 2.89.78 5.76.99 8.87ZM124.58 30.22c-2.25.16-4.55.31-6.85.49-.64 0-.63.12-.59 1 0 .54.21.69.77.63 3-.28 6-.42 8.93-.47a4.14 4.14 0 0 1 2.08.42 1.49 1.49 0 0 1 .91 1.55c-.1 1.35-.16 2.71-.23 4.07a1.49 1.49 0 0 1-.73 1.21 3.27 3.27 0 0 1-1.92.58 92 92 0 0 0-12.3.86c-.22 0-.5.11-.56-.19a15.37 15.37 0 0 1-.23-1.79c0-.29.28-.33.5-.36l2.47-.29c2.67-.28 5.34-.48 8-.53.86 0 .88 0 .89-.87s.3-1.61-.1-2.09-1.35-.15-2-.13c-2.41.06-4.82.29-7.22.53a7.18 7.18 0 0 1-1.13 0c-1.46-.14-2-.65-2.15-2.11-.08-.6-.13-1.2-.23-1.8a1.6 1.6 0 0 1 .77-1.73 4.14 4.14 0 0 1 1.79-.66 111.31 111.31 0 0 1 14-.72c.55 0 .71.15.67.71-.15 2 .2 1.6-1.63 1.61-1.3.09-2.58.08-3.91.08ZM62 53.83 63 55c.42-.07.62-.37.88-.58a87.61 87.61 0 0 1 7.49-5.67c.65-.45.66-.44 1.11.2.9 1.24.9 1.25-.39 2.14A79.81 79.81 0 0 0 65.56 56a2.54 2.54 0 0 0-.89.92l2 2.21c.9-.73 1.73-1.43 2.58-2.11 1.71-1.36 3.49-2.65 5.29-3.89.44-.31.7-.31 1 .18s.58.87.87 1.3a2.66 2.66 0 0 1-.28.29 80.46 80.46 0 0 0-8.85 6.86 3.68 3.68 0 0 1-1.16.69 1.77 1.77 0 0 1-2.23-.45 225.88 225.88 0 0 0-5.25-5.47 1.69 1.69 0 0 1-.37-2 4 4 0 0 1 1.19-1.62 94.47 94.47 0 0 1 9.64-7.51c.45-.3.76-.43 1.05.15a8.24 8.24 0 0 1 .85 1.39 92.23 92.23 0 0 0-9 6.89ZM199.31 75.37c-.68-1-1.26-1.83-1.92-2.65-.42-.52-.09-.7.26-1l6.48-4.72 1-.75c-1.19-1.63-2.42-3.1-3.67-4.56-.58-.68-.58-.68.12-1.28l1.25-1.05a5.35 5.35 0 0 0 .4.58 85.67 85.67 0 0 1 9.56 13.3c.43.74.42.74-.31 1.18l-1.18.67a.84.84 0 0 1-.26 0q-1.26-2-2.55-4.1c-.16-.26-.34-.5-.49-.76s-.43-.45-.81-.18c-.61.45-1.25.84-1.88 1.26ZM214.1 75.63c.74 1.27 1.4 2.58 2.06 4L205 85.25c-.57-1.1-1.11-2.16-1.67-3.22a.36.36 0 0 1 .17-.55l.3-.17 10-5.54a3.6 3.6 0 0 1 .3-.14ZM176.43 53.27a1.58 1.58 0 0 1 .38-.68L183 44c.51-.72.52-.72 1.21-.28.92.59 1.82 1.2 2.69 1.78.12.38-.15.54-.3.73q-3.3 4.24-6.62 8.47c-.52.67-.53.67-1.23.21l-2.16-1.44a.67.67 0 0 0-.16-.2ZM111.34 32.86a3.12 3.12 0 0 1-1.23.32c-.75.09-.8.1-.91-.68-.08-.52-.3-.64-.75-.49h-.11c-.44-.05-1 .46-1.26.06a5.61 5.61 0 0 1-.41-1.86c0-.23.19-.3.37-.34l3.35-.59c.44-.07.5.23.55.54.14 1.02.27 2.02.4 3.04Z" class="cls-6"/><path d="M205.14 117.1c.16 0 .18.08.21.18a.18.18 0 0 1-.16.24c-.13 0-.2-.07-.23-.18s.04-.2.18-.24Z" style="fill:#675b84"/><path d="M188.11 143.86a.63.63 0 0 1 .21-.7.79.79 0 0 1-.21.7Z" style="fill:#44438b"/><path d="M43.31 98.92c-1.83-.58-3.65-1.2-5.49-1.78a1.64 1.64 0 0 0-1.67.42 11.84 11.84 0 0 0-1.38 1.77 8.16 8.16 0 0 0-.23-2.17 1.89 1.89 0 0 0-1.44-1.57 8.39 8.39 0 0 1-1.39-.46 1.86 1.86 0 0 0-2.39.67 7.63 7.63 0 0 0-1.55 3.35 111.55 111.55 0 0 0-2.43 15.07c-.29 3.12-.47 6.25-.52 9.39 0 .56.12.81.73.8h3.18l10.64.11c.78 0 .78 0 .81-.83.07-1.62 0-3.24.22-4.86.12-1.09.1-1.09-1-1.22-.41 0-.83-.07-1.24-.11-1.35-.13-2.7-.29-4.06-.37-.58 0-.66-.27-.61-.79.3-2.93.63-5.85 1.12-8.75.2-1.19.46-2.38.66-3.57.09-.52.32-.72.84-.54l.43.13 5.73 1.39c.48-1.88.94-3.66 1.4-5.45.09-.32.03-.55-.36-.63Zm-11 4.46a102.53 102.53 0 0 0-1.68 11.18c0 .26-.05.53-.09.79-.07.47.17 1.14-.24 1.37s-1.17-.06-1.77-.09c-.32 0-.26-.32-.24-.54.06-.82.13-1.65.22-2.48q.57-5.34 1.61-10.62a1.54 1.54 0 0 1 .33-.86c.43.1.86.23 1.3.29.6.09.65.44.54.96ZM162.21 29.72a6 6 0 0 0-2.77-1.46 116.21 116.21 0 0 0-18.76-3.64c-.78-.09-.79-.08-.91.7q-1.08 7-2.15 14.1c-.08.46 0 .7.51.76 1.27.13 2.55.29 3.81.48.54.08.72-.11.82-.63.35-1.85.76-3.69 1.15-5.54.17-.84.18-.83 1-.7a94.08 94.08 0 0 1 11.48 2.54 11 11 0 0 0 2.24.41 2.74 2.74 0 0 0 3-2.05c.35-.87.68-1.76 1.08-2.61a1.93 1.93 0 0 0-.5-2.36Zm-5.44 1.65c-.44 1.68-.44 1.69-2.06 1.27-3.07-.8-6.16-1.43-9.29-1.92-.55-.09-.72-.26-.56-.79.09-.32.15-.66.21-1s.23-.64.69-.55c2.14.42 4.29.82 6.42 1.27 1.4.29 2.78.69 4.17 1 .45.11.53.35.42.72ZM49.51 80.6q-3.27-1.91-6.51-3.88a1.61 1.61 0 0 0-2 .11 4.67 4.67 0 0 0-1.39 1.76A91.22 91.22 0 0 0 34.74 90a5.38 5.38 0 0 0-.36 2c0 1.26.25 1.63 1.51 2.08l6.4 2.25a1.84 1.84 0 0 0 2.65-.9 5.74 5.74 0 0 0 .53-1.12 83.5 83.5 0 0 1 4.35-10 5.08 5.08 0 0 0 .57-1.71 1.78 1.78 0 0 0-.88-2Zm-5.73 11.6-6.43-2.63a89.24 89.24 0 0 1 3.51-8.29c.18-.37.38-.4.7-.22l5.71 3.06c-1.27 2.66-2.44 5.32-3.49 8.08ZM89.44 42.45a1.38 1.38 0 0 0-1.31-.9h-1l-.1-.25a3.72 3.72 0 0 0 .45-.33 1.55 1.55 0 0 0 .6-1.51A4.48 4.48 0 0 0 86.82 37a1.43 1.43 0 0 0-.75-.22 4.59 4.59 0 0 0-2.3.45 98.54 98.54 0 0 0-11.86 6.35c-.74.46-.74.48-.28 1.18l5.55 8.4.25.38c.15.24.32.25.56.1.94-.6 1.89-1.17 2.86-1.77-.94-1.58-1.82-3.07-2.76-4.64a77.75 77.75 0 0 1 7.37-3.8c.22.44.41.8.59 1.17.51 1.06 1 2.11 1.52 3.16.14.31.28.53.67.35l3-1.35ZM77 45.19a5.78 5.78 0 0 1-.87-1.19c.05-.32.35-.39.56-.51 2.06-1.17 4.17-2.25 6.3-3.28.89-.44.82-.24 1.14.43.1.2.18.41.31.7A85.374 85.374 0 0 0 77 45.19ZM106.93 39.74q-.71-3.56-1.46-7.09c-.29-1.38-.83-1.79-2.48-1.8a6.41 6.41 0 0 0-.92.12 108.14 108.14 0 0 0-11.14 3.36 3.77 3.77 0 0 0-1.82 1.29 1.43 1.43 0 0 0-.2 1.49c1 2.48 2 5 3 7.44a1.56 1.56 0 0 0 1.18.94 3.8 3.8 0 0 0 2.21-.26 91.45 91.45 0 0 1 9.32-2.77 4.81 4.81 0 0 0 1.36-.53 1.77 1.77 0 0 0 .95-2.19Zm-3.66 1.1c-2.55.61-5 1.44-7.54 2.25a2.37 2.37 0 0 1-.59-1.22c-.65-1.77-1.26-3.56-1.9-5.34-.14-.38-.26-.67.29-.85 2.77-.88 5.53-1.83 8.39-2.44h.22c.57 2.25 1.09 4.45 1.69 6.62.17.69-.05.85-.56.98ZM175.84 39.47a1 1 0 0 0-.67-.91c-1.2-.54-2.41-1.09-3.58-1.69A1.39 1.39 0 0 0 170 37a115 115 0 0 0-10.61 7.14 1.41 1.41 0 0 0-.68.72c1.17.44 2.31.84 3.42 1.29a.94.94 0 0 0 1-.11c.61-.45 1.26-.84 1.87-1.29a.92.92 0 0 1 1-.1c1.79.79 3.57 1.62 5.32 2.5a.82.82 0 0 1 .68.85v2c0 .29-.05.6.28.79l3.28 1.86c.31-.1.28-.24.29-.34a101 101 0 0 0-.01-12.84Zm-7.79 3.63 4-2.37a30.86 30.86 0 0 1 .26 4.37Z" class="cls-6"/><path d="M158.38 20A126.78 126.78 0 0 0 141 16.33a7.44 7.44 0 0 0-1.25-.09 29.69 29.69 0 0 1-3.26-.3c-1.69-.23-3.38-.34-5.08-.42-3.44-.18-6.87 0-10.31.07a24.11 24.11 0 0 0-3.28.17c-2 .29-4 .5-6.06.78-3 .41-6.08.68-9.09 1.27a78.38 78.38 0 0 0-12 3.07c-1.63.59-3.72 1.12-5.3 1.87-4.06 1.92-7 3-11 5.15-3.65 1.92-8.67 4.37-12 6.82-1.57 1.16-5.19 4.32-5.59 4.66s-.72.64-1.08 1c2-1.09 3.81-2.33 5.67-3.55a83.65 83.65 0 0 1 9-5.5c2.51-1.23 4.94-2.61 7.45-3.85a65.55 65.55 0 0 1 7.81-3.31 3.55 3.55 0 0 1 1.6-.34 3.15 3.15 0 0 1-1.5.84 103.25 103.25 0 0 0-11.42 5.23c-.74.38-3.06 1.74-3.51 2-2.82 1.59-5.52 3.37-8.2 5.18a2.3 2.3 0 0 0-.85.82c.23.08.34 0 .46-.12a222.83 222.83 0 0 1 26.18-12.73 112 112 0 0 1 18.41-5.39 121.64 121.64 0 0 1 13-1.74 112.75 112.75 0 0 1 15.27-.08A92.91 92.91 0 0 1 149 19.47c3.51.76 7.05 1.32 10.52 2.21 2.16.56 4.23 1.39 6.34 2.11 4.92 1.69 9.91 3.19 14.54 5.64.63.34 1.3.6 1.95.9.24.13.44.17.45-.21A118.37 118.37 0 0 0 158.38 20ZM21.57 87a106.37 106.37 0 0 1-4.7 14.7c0-4.2 2.71-12.15 4.7-14.7ZM28.46 73.31ZM33.79 62.65a99.52 99.52 0 0 0-6 9.91c-.9 1.77-5.68 11.57-6.21 12.92.09 0 5.63-10.31 5.73-10.27.52-1.23 9.18-15.48 13-18.77.28-.24 7.34-8.31 7.4-8.76-1.77 1.65-8.84 7.84-13.92 14.97Z" class="cls-9"/><path d="M182.35 30.33c.16 0 .35 0 .45-.21a8.4 8.4 0 0 1 2.48 1.42c-.76.02-1.41-.26-2.93-1.21ZM32.67 67.45c-.26.36-5.92 10-6.9 12.25a114.73 114.73 0 0 0-5 14.17c.5-.27.58-.76.73-1.2.55-1.6 1.29-3.17 2-4.73 1.2-2.71 2.17-5.23 3.46-7.91a55 55 0 0 1 3.4-6.26c1.45-2.49 3.11-4.89 4.83-7.3C37.61 63 49.35 48.79 51.33 47c-2.27-.26-14.17 14.08-18.66 20.45Z" class="cls-9"/><path d="M248.77 115.49c-.42-2.4-.51-4.83-1-7.23-.33-1.8-.69-3.61-1-5.42a83.22 83.22 0 0 0-3.24-12 109.68 109.68 0 0 0-4.87-12 116.8 116.8 0 0 0-9.19-16.14 99.79 99.79 0 0 0-8.05-10.7c-1.93-2.19-3.83-4.44-5.86-6.53a130.17 130.17 0 0 0-11.9-10.86c-1.2-1-2.26-2.11-3.51-3a111.8 111.8 0 0 0-17.37-9.76 161.53 161.53 0 0 0-17.85-7.26 3.75 3.75 0 0 0-.91-.47 4.67 4.67 0 0 0 1.36.23 33.37 33.37 0 0 1 6.69 2c4 1.73 8.1 3.41 12.15 5.11a2.14 2.14 0 0 0 1 .31c-.21-.55-.85-.56-1.14-1a3.08 3.08 0 0 1 1.18.42 124.77 124.77 0 0 1 13.13 7.44l2.95 1.87c.15.1.36.24.5.06s0-.42-.15-.58l-.19-.13c-2.67-1.74-5.22-3.67-8-5.2-1.92-1-3.82-2.11-5.71-3.19A128.18 128.18 0 0 0 169 12.91c-2.15-.79-7.92-2.85-8.61-3.24-.5-.27-1.79-.94-2.45-1.38 3.42-.43 7.82.57 11.08.83a40.9 40.9 0 0 0-4.14-1.51c.59-.11 4.87.85 4.66.75A41.75 41.75 0 0 0 165 6.81c-.7-.16-1.33-.66.57-.3A52.34 52.34 0 0 1 170.76 8c1.71.61 3.46 1.13 5.19 1.69 1 .27.82.11.43-.2-.61-.28-1.2-.59-1.83-.83a90 90 0 0 0-10-3.46c-4.46-1.2-8.9-2.45-13.46-3.2C147 1.29 135.63.11 134.36.06c-2-.07-3.91-.06-5.87-.06a101.55 101.55 0 0 0-13.94.69c-4.2.57-8.4 1.12-12.54 2Q96.34 4 90.75 5.46c-2.28.61-4.49 1.47-6.73 2.22-2.78.93-5.49 2.05-8.17 3.22-3.24 1.41-6.43 2.93-9.55 4.59q-4.3 2.27-8.38 4.85c-1.86 1.16-7.39 4.48-7.85 4.73A55.12 55.12 0 0 0 44 29.5c-1 .76-2 1.58-3 2.38-2.73 2.21-5.14 4.74-7.65 7.17a83.59 83.59 0 0 0-8.5 9.44 125.63 125.63 0 0 0-8.33 12 3.51 3.51 0 0 0-.65 1.88 27.86 27.86 0 0 1 2.56-3.34 5.1 5.1 0 0 0 .81-.93 6.57 6.57 0 0 0-.61 1.35 28.23 28.23 0 0 0-1.48 3.15c-1.69 3.19-3.36 6.38-4.92 9.63-2.39 5-5 9.47-6.94 14.65a127.36 127.36 0 0 0-4.08 16c-2 15.72-.88 25.39-.83 26.45.29 6.08 2.23 14.15 2.76 16.76.49 2.39 1.4 4.74 1.87 7.13a76.85 76.85 0 0 0 3.22 11.25 98.31 98.31 0 0 0 7.71 17.25c1.29 2.16 2.5 4.37 3.7 6.58a48 48 0 0 0 3.77 5.87c2.36 3.12 5 6 7.47 9 3.24 3.93 7.32 6.88 11.49 9.71a6.44 6.44 0 0 1 .72.54.57.57 0 0 1 .14.72c-.15.3-.44.23-.69.16a4.23 4.23 0 0 1-1.3-.67 99.5 99.5 0 0 1-10.67-9 81 81 0 0 1-11.64-14.72c-1.2-2-10.19-19.33-11.86-24.09-1.32-3.76-2.29-7.62-3.33-11.45a13.93 13.93 0 0 1-.74-2.58.33.33 0 0 0-.38-.32c-.23 0-.27.26-.27.44a6.87 6.87 0 0 0 .14 1 17.63 17.63 0 0 1 .92 4.61 5.07 5.07 0 0 0 .3 1.31 90.19 90.19 0 0 0 3.76 10.84c.55 1.35 1.09 2.72 1.68 4.06 1.84 4.2 4.19 8.14 6.28 12.22.83 1.6 1.79 3.13 2.75 4.65 2.23 3.49 4.72 6.78 7.27 10a97.22 97.22 0 0 0 10.39 11.54c1.45 1.36 3 2.66 4.4 4a48.69 48.69 0 0 0 4.44 3.86q2.73 2.1 5.53 4.1a104 104 0 0 0 17 10c3.14 1.44 6.26 2.95 9.48 4.19a109.47 109.47 0 0 0 13 4.06c1.6.39 3.16 1 4.79 1.26 3.21.58 6.39 1.33 9.62 1.78a11.44 11.44 0 0 1 1.46.16c1.74.51 3.56.38 5.33.73a36.58 36.58 0 0 0 4.82.34 109.42 109.42 0 0 0 11.16.27 6.11 6.11 0 0 1 1.91.11 16.47 16.47 0 0 0 4.48.38c1 0 1.84-.36 2.77-.39a57.08 57.08 0 0 0 10.27-1.25 120.15 120.15 0 0 0 16.55-4.41c2.32-.86 4.76-1.47 7-2.49a175.45 175.45 0 0 0 16.63-8.32c2.33-1.38 4.67-2.75 6.86-4.33a157.54 157.54 0 0 0 12.66-9.86 101 101 0 0 0 7.3-7 149.7 149.7 0 0 0 13.39-16.55 29.37 29.37 0 0 0 2.13-3.58c1.94-3.94 3.85-7.9 5.87-11.8a37.36 37.36 0 0 0 2.76-6.87 1.48 1.48 0 0 0 0-1.15c-.28.72-.54 1.42-.82 2.12a53.68 53.68 0 0 1-2.49 5.66 3 3 0 0 1-1.06 1.27 2.1 2.1 0 0 1 0-1.49 46.91 46.91 0 0 1 1.85-5.43 15.19 15.19 0 0 0 .93-3.13c.24-1.87 1-3.6 1.29-5.46a24.86 24.86 0 0 0 .28-4.47c0-.13-.14-.26-.26-.47a40.68 40.68 0 0 1-2.07 5.93c-.22-2.54.92-5 .58-7.61-.86 1.77-1.55 2.61-2.51 3a14.71 14.71 0 0 1-.07-4.49 51.76 51.76 0 0 0 .44-5.27 26.56 26.56 0 0 1 .35-4.37 47.33 47.33 0 0 0 .41-5v-.69h-.27a44.72 44.72 0 0 1-.87 4.59 73.72 73.72 0 0 1-2.47 9.7 81.81 81.81 0 0 1-5.8 14.4 119.21 119.21 0 0 1-7.9 12.72 15.37 15.37 0 0 1-2.5 2.89 27.5 27.5 0 0 0-4.16 4.73 92.52 92.52 0 0 1-9.12 10.44 117.61 117.61 0 0 1-15.88 13.29 125.63 125.63 0 0 1-15.08 9 48.68 48.68 0 0 1-6.53 2.78l-11.36 3.74a38.89 38.89 0 0 1-5.42 1.52c-3 .51-6 1.24-9.1 1.62-2.65.34-5.3.66-8 .77a123 123 0 0 1-12.74 0c-1.47-.08-2.92-.29-4.39-.35a69.34 69.34 0 0 1-9.97-1.32 133.34 133.34 0 0 1-14.93-3.94c-2.22-.7-4.5-1.24-6.65-2.13a97.65 97.65 0 0 1-19-10.48 104.54 104.54 0 0 1-17.37-14.83c-4-4.37-14.14-19.13-14.48-19.67-1.18-1.92-2.49-3.76-3.48-5.79a102.06 102.06 0 0 1-7.63-20.07c-.93-3.75-1.91-7.49-2.51-11.32-.32-2.08-.42-4.18-.63-6.27-.13-1.23.17-8.65.11-9.14a16.87 16.87 0 0 1 0-2.93c.08-1.61.18-3.22.27-4.83 0-.48.44-1-.25-1.4a.14.14 0 0 0 0 .17c-.13.23 0 .52-.17.74-.31 1.73-.17 3.51-.65 5.47-.13-1.53.35-7.16.24-8.45-.13.49-.71 5.32-.71 5.8a2.53 2.53 0 0 1-.25 1.48 1.27 1.27 0 0 1-.22-1c0-1.11 0-2.23-.09-3.34-.11-1.58.71-11.88 1-13.55 1.08-6.77 3.23-13.22 5.46-19.69 1.45-4.22 10.66-20 11.79-21.69a107.49 107.49 0 0 1 9.14-11.28 150.5 150.5 0 0 1 12.58-12.3 68.08 68.08 0 0 1 13.92-9.7c1.54-.78 3-1.63 4.57-2.45 2.58-1.38 5.11-2.89 7.76-4.13a82.87 82.87 0 0 1 16.3-5.54c4.64-1.09 9.29-2.16 14-2.9a79.17 79.17 0 0 1 10.43-.84l3.39-.05a20.41 20.41 0 0 1 3.83.05 23.26 23.26 0 0 0 3.82.16 47.07 47.07 0 0 1 7.41.59c5.95.87 11.89 1.78 17.74 3.18a16.33 16.33 0 0 1 2.49.67c6.54 2.66 13.21 5 19.43 8.44 1.61.89 3.36 1.55 4.91 2.54a165.73 165.73 0 0 1 16.25 11.12 114 114 0 0 1 16.77 16.47 84.39 84.39 0 0 1 6.13 8.07c1.38 2.19 2.74 4.4 4.16 6.57 1 1.57 1.91 3.2 2.78 4.86 1.82 3.47 3.4 7 4.9 10.64 1.37 3.29 2.65 6.61 3.7 10a45 45 0 0 0 2.53 6.72c.42.84.77 1.71 1.16 2.57.14.29.2.65.61.71 0 0 .06-.09 0-.12a97.66 97.66 0 0 0-4.28-14.79 3.14 3.14 0 0 1-.34-1.3 5.13 5.13 0 0 0-.62-2.37l-7.35-15.34a4.29 4.29 0 0 1-.56-1.26 1.67 1.67 0 0 1 .27.18c.19.24.37.47.54.72a77.52 77.52 0 0 1 6.71 12.87A98.87 98.87 0 0 1 242 98.49a67.84 67.84 0 0 1 2 8.88 34.4 34.4 0 0 0 1.22 5.1 16.62 16.62 0 0 0-.12-4.23c-.69-3.93-1.89-7.73-2.94-11.56a65.44 65.44 0 0 0-2.82-9.26c-.56-1.3-1-2.65-1.58-4a47.24 47.24 0 0 0-3.39-7.11c-3-4.83-5.89-9.69-8.83-14.54a14.28 14.28 0 0 0-1.54-2.05c-3.17-3.61-6.32-7.25-9.51-10.84a51.69 51.69 0 0 0-4.18-4.57c-1.54-1.38-3.06-2.79-4.7-4a1.78 1.78 0 0 1-.81-1 2 2 0 0 1 1.23.58c.5.4 1 .83 1.47 1.23a62.16 62.16 0 0 1 7.22 6.63c3.57 4.05 7.09 8.17 10.44 12.41 4.11 5.21 7.24 11.05 10.32 16.9a119 119 0 0 1 5.76 13.81 90.66 90.66 0 0 1 3.93 13.5c.67 3.27 1.11 6.58 2.09 9.78.16.5.16 1 .28 1.55a22.32 22.32 0 0 1 .2 2.72.73.73 0 0 0 .55-.4 3.51 3.51 0 0 0 .48-2.53Zm-46.79 92a74.63 74.63 0 0 0 7.08-7.26c1.75-2 3.48-4 5.13-6.08 2.9-3.69 5.54-6.95 8.11-10.88a2.58 2.58 0 0 1 .77-.94c.17.31-.09.49-.2.71a65.7 65.7 0 0 1-7 10.86c-2.12 2.86-4.38 5.63-6.77 8.27a78.53 78.53 0 0 1-7.27 7.21 47.94 47.94 0 0 1-5 3.37 64.72 64.72 0 0 1 5.17-5.22ZM9.76 105.78c-.32 5-.83 7.72-1 10.48a5.57 5.57 0 0 1-.6 2.67 3.41 3.41 0 0 1-.52-1.55 8.05 8.05 0 0 1-.18-2.55 59.72 59.72 0 0 1 .92-9.07c.88-4 1.6-8 2.63-11.93a17.37 17.37 0 0 1 2-5.16c-.42 2.09-.62 4.19-1.12 6.28-.89 3.66-1.56 7.11-2.13 10.83Zm7.51 59a90.24 90.24 0 0 0 12.59 22.78c3 3.77 6.17 7.37 9.41 10.92a97.56 97.56 0 0 0 13 11.63 108.08 108.08 0 0 0 14.59 9.75c1.82 1 3.68 1.88 5.52 2.82-.06.57-.43.29-.71.26a12.14 12.14 0 0 1-3-1.47c-2.92-1.72-5.82-3.46-8.73-5.18-3.71-2.18-12-8.33-12.49-8.68a97.06 97.06 0 0 1-10.31-9.76A96.12 96.12 0 0 1 17.69 168c-1.82-4.5-3.45-9.05-4.83-13.69a5.41 5.41 0 0 1-.12-.55c-.05-.27-.32-.62.23-.69 1.43 3.93 2.77 7.83 4.3 11.7ZM64 30.5a123.08 123.08 0 0 0-15.4 11.88c-.48.43-2.62 2.58-3.21 3 .47-.6 1.81-2.21 1.92-2.33A78.78 78.78 0 0 1 62.54 31c.75-.45 1.47-.82 2.29-1.27.15-.08.46-.19.47-.2s-1 .76-1.3.97Zm26.59-13a107.36 107.36 0 0 0-14 5.73 8.75 8.75 0 0 1-.86.3 1.09 1.09 0 0 1-.49.12A29.72 29.72 0 0 1 78 21.77 59.79 59.79 0 0 1 89.93 17a15.76 15.76 0 0 1 2.66 0s-1.8.47-2.02.54Zm8.23-6.5a99.22 99.22 0 0 0-9.65 2.39 69.41 69.41 0 0 0-8.8 3.27c-2.32 1.09-4.72 2-7 3.14q-5.2 2.54-10.13 5.53c-5.27 3.23-10 7.2-15 10.88a8.49 8.49 0 0 0-.84.75c-1.64 1.56-3.25 3.16-4.92 4.69a97.31 97.31 0 0 0-16 19.26c-1 1.52-2 3-3 4.51-.24.37-.52.72-.79 1.08a3.53 3.53 0 0 1 .63-1.89q3.06-5.37 6.63-10.39a115.72 115.72 0 0 1 9.75-11.9 8.45 8.45 0 0 1 1.08-1 27.38 27.38 0 0 0 4.57-4c.53-.62 2.26-2.3 2.57-2.59 3.6-3.4 7.77-6.09 11.77-9a66 66 0 0 1 9-5.27 130.48 130.48 0 0 1 15.84-7c.32-.11.63-.25 1-.34l17.9-4.34c1.47-.35 3-.68 4.47-1 3.72-.87 9.93-1 13.61-1.25a74.16 74.16 0 0 1 11.15.51h.45a9.08 9.08 0 0 1-3 .45c-3.81 0-7.6.46-11.41.61-2.59.11-5.17.57-7.76.84-4.12.48-8.13 1.2-12.12 2.06Zm38.36.08c-4.72-.09-8.69-.68-19.44-.17a6.39 6.39 0 0 1 2-.94c1.56-.18 3.1-.43 4.68-.54 2.81-.18 5.61-.12 8.42-.06a48.82 48.82 0 0 1 9.23 1.45c-.68.59-4.13.18-4.89.23ZM46.85 43.72Z" class="cls-9"/><path d="M196.11 85.53a67.67 67.67 0 0 1 10.26 30.26c-2.64-10.35-5.46-20.64-10.26-30.26Z" class="cls-9"/><path d="M196.25 89.06c1.75 1.75 7.41 17.21 7.35 20.13-2.42-6.85-4.5-13.62-7.35-20.13ZM204.38 142.44c-.59-.91 1.11-9 1.23-12.41.07-.17 1-3.26 1.24-3.18v2.44a58.09 58.09 0 0 1-1.47 11c-.06.16-.93 1.98-1 2.15ZM205.82 128.12c-1-2.87-1.38-13-2.72-16.64.88.5 2.75 6.11 2.85 6.61.63 3.13.05 6.91-.13 10.03ZM113.72 58.8a15.55 15.55 0 0 1 4.49-.39c-.79.34-4.56.93-8.51 1.92.64-.65 3.3-1.41 4.02-1.53ZM189.13 77.65a77.38 77.38 0 0 0-10.53-11.33 3.67 3.67 0 0 1-1.25-1.53c3.16 2.06 9.85 8.8 12.53 11.41.17 0-3.24-4-3.33-4.26a50 50 0 0 0-9.46-8.67c-1-.72-1.69-1.35-3.34-2.6s-3.61-2.32-5.43-3.44a77.1 77.1 0 0 0-9.23-4.5 55.75 55.75 0 0 0-7.37-2.54A90.19 90.19 0 0 0 139 47.45a94.52 94.52 0 0 0-13.56-.36 25.28 25.28 0 0 0-4.6.59c1.1.11 11.52.21 13.28.42a63.3 63.3 0 0 1 14.12 3c3.23 1.17 6.54 2.07 9.69 3.48a87.93 87.93 0 0 1 24 16.12c2.7 2.5 5 5.34 7.43 8.07.3.34.62.66.94 1a6.55 6.55 0 0 0-1.17-2.12Z" class="cls-9"/><path d="M202.86 132.07h-.2c-.17.21-.08.57-.51.81 0-3.4-.25-6.65-.36-9.9a91.87 91.87 0 0 0-1.37-12.29A74.32 74.32 0 0 0 195.47 94a57.14 57.14 0 0 0-8-13.68 94.06 94.06 0 0 0-12.82-13.12 52 52 0 0 0-8.5-5.9c-3.63-2-7.19-4.07-10.78-6.13a23 23 0 0 0-2.73-1.34 68.57 68.57 0 0 0-10.18-3.27 82.31 82.31 0 0 0-13.65-2.31c-8.15-.53-16.27-.4-24.17 1.92-2.38.7-4.75 1.6-7.11 2.37a53.25 53.25 0 0 0-10.82 5.37c-.36.22-.73.5-1.41.91-2 1.19-8.19 6.85-10.83 9.22-1.61 1.44-7.31 7.67-7.73 8.81.75-.88 1.19-1.11 1.94-2 .14-.12 5.4-5.4 5.53-5.53l.79-.77a5.59 5.59 0 0 0-1.16 2.62 11.57 11.57 0 0 0 1.82-1.82c1.13-1.21 9.54-8 11.12-9.18a11.7 11.7 0 0 1 1.45-.85c.2-.11.43-.16.55.13 0 .07 0 .17-.09.2a88 88 0 0 0-8.63 6.89 55.49 55.49 0 0 0-5.41 5.1 7.84 7.84 0 0 0-1.5 2.15 20.62 20.62 0 0 0 2.9-2.62 72.53 72.53 0 0 1 10.68-8.67c2.1-1.31 2.37-1.57 4.74-2.89 5.36-3 7.9-3.68 10.8-4.21 1.11-.2-5 2-5.28 2.23l-3.91 2a57.85 57.85 0 0 0-13.8 9.67c-1.91 1.82-3.74 3.7-5.56 5.59a6.4 6.4 0 0 0-1.32 1.95c-.18.41-.7 1-.24 1.28s.87-.29 1.2-.64a38.48 38.48 0 0 1 3.7-3.29c1.43-1.17 2.77-2.43 4.09-3.71a45.41 45.41 0 0 1 8.78-6.67c4.59-2.69 9.32-5.19 14.59-6.39a4.92 4.92 0 0 0 .65-.21c1.68-.57 3-.6 4.67-1.15a36.94 36.94 0 0 1 5-1.1c1-.15 3.18-.49 4.78-.71 4.31-.59 8.63-.24 12.95-.12.63 0 1.26.16 1.88.24-3.37.19-6.74.27-10.1.35-.45 0-.91 0-1.35.06-.2 0-.47.08-.53.34s.37.21.43.47a33.37 33.37 0 0 0-5 .74c-2.4.4-10 2.37-9.79 2.31s7.82-1.11 10.4-1.35a75.33 75.33 0 0 1 9-.53 35.14 35.14 0 0 1 6.93.87c.68.16.83.55.41 1.1a2.69 2.69 0 0 1-.51.44 4.69 4.69 0 0 1-1.77.7 7 7 0 0 0-2.24.56c.08.27 1.19 0 1.19.39-.69.11-4.31.19-5 .29 0 0-4.35.09-12.08 2.82 1.4-.24 2.63-.41 3.84-.67a62.58 62.58 0 0 1 10.29-1.41h1.71a24 24 0 0 1 3.67.32v.27a49.87 49.87 0 0 0-13.42.58c1.24 0 2.48.05 3.72 0a62.6 62.6 0 0 1 9.68.47 65.53 65.53 0 0 1 22.93 7.41 69.78 69.78 0 0 1 12.2 9c.19.17.55.39.36.62-.5.59.06.81.33 1.07a22.26 22.26 0 0 1 3.81 4.41c1 1.61 1.86 3.37 3 4.89 1.83 2.39 7.91 15.94 8.45 16.36a7.83 7.83 0 0 0-.58-2.39 61.41 61.41 0 0 0-7.77-15.69c-.48-.68-.93-1.37-1.36-2.07-.12-.19-.35-.41 0-.73.35.37.69.71 1 1.07a26.47 26.47 0 0 1 3 4.24c1.61 2.77 5.88 12.26 6.29 13.31 1.7 4.39 2.39 20.46 2.32 21.85-.06 1.12-.09 2.25-.14 3.37 0 .41 0 .75.56.68s.65.31.73.7a5.65 5.65 0 0 1 .07 1 25 25 0 0 1-1.79 9 79.64 79.64 0 0 1-10.19 18.89A158.59 158.59 0 0 1 165.18 174a24.44 24.44 0 0 1-2.12 1.56c-4.28 2.53 0-2.22.48-2.66s4-3.69 5.15-5.06c1.38-1.69 3-3.2 4.25-5 2.28-3.12 4.59-6.22 6.78-9.42a48 48 0 0 0 5.79-12.14 6.4 6.4 0 0 1 .21-.69c.19-.6.15-.51.25-.88s.31-.62-.24-.7a10 10 0 0 0-.72 2 23.34 23.34 0 0 1-1.5 3.1 11.93 11.93 0 0 0-1.49 2.77 47.06 47.06 0 0 1-3.9 6.87 65.93 65.93 0 0 1-6.19 8.29c-2.49 2.65-5.52 5.6-8.08 8.18-.1.1-9.23 5.88-9.44 6-1.11.85-7.21 3.58-8.95 4.47-2 1-12.6 3.87-15.57 4a92.7 92.7 0 0 1-14.54-.7c-3.52-.48-19.09-5.47-22.08-7.41-.86-.56-2.88-1.47-6.94-5.77-5.78-6.14-11.59-18.08-12.19-17.23a10.78 10.78 0 0 1-1 1.35c-.77.93-1.49 1.63-1.29 2.83.17 1-.78-.27-1.7.32a10.27 10.27 0 0 0-3.06 2.69c-.66 1-.93.46-2.2.68-.53.09-.86 1.22-2.08 1.55-.84.23-2.43.4-3.37.64a21.18 21.18 0 0 1-5.31 1c-1.13-.11-2.69-1.1-3.92-1.38-2.35-.55 13.07 13.69 14.94 15.22 2.82 2.31 5.69 4.56 8.49 6.9a23.12 23.12 0 0 0 3.81 2.6c4.4 2.34 8.72 4.9 13.52 6.41 2.58.81 5.06 1.94 7.69 2.59a102.38 102.38 0 0 0 15.19 2.71 84.53 84.53 0 0 0 13.59.29 138.59 138.59 0 0 0 16.31-2.81c5.59-1.73 10-3.88 12.8-5a149.9 149.9 0 0 0 14.8-8.11 80.59 80.59 0 0 0 11-9.49 74.76 74.76 0 0 0 11.45-14.88 85.22 85.22 0 0 0 6.25-13.71c1.37-3.63 2.13-7.42 3.31-11.1a21 21 0 0 1-.5-2.81Zm-62.63-69.55c2.36-.43 10.76 1.9 12.31 3.79-.65-.01-11.3-3.31-12.31-3.79Zm12.9-3.71c-3.3-.93-3.61-1.43-7-2.2-.25 0-3.93-1-4.34-1.15a4.8 4.8 0 0 1 2-.41c3.75 0 7.38 1.82 10.9 3.11.38.14 2.33 1.43 3.08 1.92a48.29 48.29 0 0 1-4.64-1.27Zm8.69 7.69c3.1.94 9.32 5.5 9.32 6.62Zm11.23 7.42a27.07 27.07 0 0 1 8.7 9.49ZM189 84.63c-.25 0-.35-.21-.48-.38-2.53-3.28-5.23-6.42-7.95-9.54a2 2 0 0 1-.19-.34c.33-.11.51.1.67.26.54.51 1.09 1 1.59 1.59a80.11 80.11 0 0 1 6 7.64c.17.24.39.45.38.77ZM92.45 186.06c-2.15-.92-4.31-1.82-6.46-2.75a27.34 27.34 0 0 1-6.65-4 26.64 26.64 0 0 1-3.27-3c-1.47-1.57-4-3.92-5.47-5.79-.89-1.11-1.28-1.49-2.23-2.56s-1.67-2-2.51-3l.17-.16c.19.19.4.36.58.56 1.28 1.4 2.57 2.77 3.8 4.2a80.09 80.09 0 0 0 6.44 6.27c4.93 3.84 10.3 6.58 15.64 9.77l1.26.75a3.1 3.1 0 0 1-1.3-.29Zm27.39 7c.12-.08.23-.2.33-.21 9-.8 16.12-1.44 24.3-2.87-2.66 2.02-19.89 4.09-24.63 3.02Zm73.52-43.42a29.16 29.16 0 0 1-2.15 5.57 81.85 81.85 0 0 1-7.54 12.33c-.37.52-.79 1-1.14 1.54-3 4.49-6.86 8.1-10.86 11.62-.17.15-2.73 1.63-2.91 1.76-.5-.1.66-1.21 1.38-1.91l1.91-1.68a59.07 59.07 0 0 0 10.14-10.76c1.47-2.14 3-4.24 4.52-6.35a54.33 54.33 0 0 0 5-9.47c.53-1.16 1.08-2.31 1.66-3.57a1.11 1.11 0 0 1-.01.89Z" class="cls-9"/><path d="m57 163.9-.16-.12h-.13Z" class="cls-9"/><path d="M51.8 152.47s2.77 10.85 7.26 12.16a9.63 9.63 0 0 1-1.59.24 7.16 7.16 0 0 1-3-3.43 6.07 6.07 0 0 0 2.05 3.4c-.33 0-.67 0-1-.08-1.83-1-4-4.27-4.6-8.12a13.24 13.24 0 0 0 2.85 7.84 4.7 4.7 0 0 1-1.64-.65c-2.65-2-2.73-11.45-2.73-11.45Z" style="fill:#d1945d"/><path d="M65 144.22s3 8.56 9.43 10.1c0 .11-.1.21-.16.32a11.22 11.22 0 0 1-6.58-4.59c1.31 2.73 4.38 4.39 6.27 5.09-.12.17-.55.58-.69.76a16.83 16.83 0 0 1-8.38-7.12 17.26 17.26 0 0 0 7.75 7.95c-.32.34-.67.68-1 1-2.64-1.17-4.81-3.4-7-6.32a18.82 18.82 0 0 0 6 7.11l-.59.48a19.94 19.94 0 0 1-4.48-4.17 12 12 0 0 0 4 4.52l-.64.48a22.23 22.23 0 0 1-6.15-7c.92 3.2 3.89 6.14 5.29 7.62l-.46.3a22.13 22.13 0 0 1-7.53-11.18A22.13 22.13 0 0 0 67 161.08c-.26.16-.75.4-1 .56a13.31 13.31 0 0 1-4.3-4.92 9.81 9.81 0 0 0 3.74 5.36c-.42.24-.87.5-1.26.68a17.57 17.57 0 0 1-5-5.68 15.06 15.06 0 0 0 4.36 6c-.19.09-.92.31-1.1.4-3-2-5.43-4.9-7.47-9.37a22 22 0 0 0 6.69 9.79l-1.13.42a18.79 18.79 0 0 1-6.8-7.63c.93 3.93 4.78 7.54 5.5 8l-1 .24a12.54 12.54 0 0 1-4.39-5.09 11.16 11.16 0 0 0 3.46 5c-4.37-1-6.87-12.45-6.87-12.45Z" style="fill:#bc7b41"/><path d="M51.29 152.73s2.77 10.85 7.25 12.16a8.57 8.57 0 0 1-1.59.23 7.12 7.12 0 0 1-3-3.42 6 6 0 0 0 2 3.4c-.33 0-.67 0-1-.08-1.83-1-4-4.27-4.61-8.13a13.25 13.25 0 0 0 2.85 7.85 4.72 4.72 0 0 1-1.63-.65c-2.66-2-2.73-11.45-2.73-11.45Z" style="fill:url(#linear-gradient-3)"/><path d="M65.52 144.36s3.22 8.31 9.72 9.61l-.15.31a11.1 11.1 0 0 1-6.7-4.29c1.39 2.65 4.5 4.17 6.41 4.8-.11.17-.53.59-.66.77a16.86 16.86 0 0 1-8.59-6.71 17.12 17.12 0 0 0 8 7.54c-.31.33-.65.68-1 1-2.66-1.06-4.9-3.18-7.14-6a18.6 18.6 0 0 0 6.26 6.79l-.58.49a19.56 19.56 0 0 1-4.59-3.95 11.68 11.68 0 0 0 4.15 4.3c-.2.17-.41.33-.62.49a21.72 21.72 0 0 1-6.36-6.69c1 3.11 4.07 5.91 5.52 7.31l-.44.31a21.73 21.73 0 0 1-7.88-10.72 21.76 21.76 0 0 0 7.28 11.06c-.26.18-.74.43-1 .59a13.16 13.16 0 0 1-4.44-4.69 9.59 9.59 0 0 0 3.9 5.14c-.41.25-.86.52-1.24.71a17.51 17.51 0 0 1-5.12-5.42 14.8 14.8 0 0 0 4.53 5.73c-.18.09-.89.34-1.08.43a21 21 0 0 1-7.74-9 21.64 21.64 0 0 0 7 9.39l-1.1.45a18.49 18.49 0 0 1-7-7.26c1.06 3.82 5 7.24 5.75 7.69-.36.1-.71.19-1 .26a12.42 12.42 0 0 1-4.54-4.85 10.89 10.89 0 0 0 3.61 4.82c-4.39-.88-7.25-12-7.25-12Z" style="fill:url(#linear-gradient-4)"/><path d="M64.55 145.09a10.2 10.2 0 0 0 .4 1 20.26 20.26 0 0 0 1 1.9 11.84 11.84 0 0 0 2.4 3 13.26 13.26 0 0 1-2.3-3.21c-.31-.58-.58-1.18-.85-1.78a8.27 8.27 0 0 1-.41-1.08 1.93 1.93 0 0 0-.35-.77h-.08a1.68 1.68 0 0 0 .19.94ZM63 145a26.32 26.32 0 0 0 1.57 3.81 13.74 13.74 0 0 0 1 1.62c.34.49.72.94 1.07 1.41-.36-.47-.78-.9-1.14-1.37a12.4 12.4 0 0 1-1.1-1.82c-.3-.58-.59-1.17-.86-1.76a13.34 13.34 0 0 1-.79-1.82.17.17 0 0 1 .25-.07Zm-5.26 3.26c0-.11.16-.15.19 0 .2.53.32 1.09.49 1.63s.37 1.06.56 1.58a29.69 29.69 0 0 0 1.35 3.23 27.21 27.21 0 0 0 1.57 2.73c.32.49.66 1 1 1.42a10.89 10.89 0 0 1 .94 1.21 5.81 5.81 0 0 1-1-1.14c-.35-.42-.68-.86-1-1.3a23.49 23.49 0 0 1-1.72-2.79 24 24 0 0 1-1.33-3c-.22-.58-.44-1.16-.64-1.75a5.73 5.73 0 0 1-.4-1.78Zm-1 1.27a21.69 21.69 0 0 0 3.74 9.94s0 .06 0 0a16.51 16.51 0 0 1-2.63-4.47 23.3 23.3 0 0 1-.82-2.44 15 15 0 0 1-.62-3c-.02-.13.27-.16.29.01Zm5-3.9a29.46 29.46 0 0 0 1.57 4.13c.28.56.56 1.14.88 1.67a8.21 8.21 0 0 1 1 1.45c-.35-.45-.72-.91-1-1.39a19.59 19.59 0 0 1-1-1.79 26.19 26.19 0 0 1-1.6-4c-.24-.11.02-.2.08-.03Zm-1.2.73a.1.1 0 0 1 .19 0c.18.52.22 1.11.37 1.65a14.16 14.16 0 0 0 .53 1.55 30 30 0 0 0 1.54 3.05 12.51 12.51 0 0 1-1.68-3 13.45 13.45 0 0 1-.58-1.61 5.61 5.61 0 0 1-.44-1.6Zm-1.39.77c.2.63.32 1.28.5 1.92a21.27 21.27 0 0 0 .69 2 29.57 29.57 0 0 0 2 4s-.06.09-.08 0a31.42 31.42 0 0 1-2-3.85 13.22 13.22 0 0 1-1.26-4.17c-.09.06.06.06.08.14Zm-5.18 3.62a15.48 15.48 0 0 0 .54 2.5 17.59 17.59 0 0 0 .74 2.11 16.24 16.24 0 0 0 2.35 3.81 11.69 11.69 0 0 1-2.6-3.71 17.25 17.25 0 0 1-.75-2 14.6 14.6 0 0 1-.67-2.6.15.15 0 0 1 .32-.07Zm-2 .47a14.14 14.14 0 0 1 .45 2.35 18.86 18.86 0 0 0 .73 2.54 19.31 19.31 0 0 0 2.33 4.34c-.45-.68-1-1.3-1.4-2a15.9 15.9 0 0 1-1.07-2.29 19.69 19.69 0 0 1-.73-2.29 12.3 12.3 0 0 1-.46-2.62.08.08 0 0 1 .09.01Zm-1.24.24a14.74 14.74 0 0 1 .12 2.4 17.8 17.8 0 0 0 .36 2.61 19.65 19.65 0 0 0 1.7 4.63c-.35-.74-.79-1.43-1.11-2.18a15.57 15.57 0 0 1-.73-2.41 19.09 19.09 0 0 1-.41-2.38 12.47 12.47 0 0 1-.08-2.66.08.08 0 0 1 .09.03Zm-1.12.55a17.37 17.37 0 0 1 0 2.6 22.65 22.65 0 0 0 .23 2.85 22.29 22.29 0 0 0 1.46 5.06c-.32-.81-.72-1.57-1-2.4a18 18 0 0 1-.6-2.64 20.35 20.35 0 0 1-.28-2.58 14 14 0 0 1 0-2.89.08.08 0 0 1 .13.04Zm5.78-2.5c0-.18.17-.2.21 0 .15.62.21 1.27.35 1.89s.28 1.2.44 1.78a16 16 0 0 0 .5 1.57 14.86 14.86 0 0 0 .79 1.6 7.89 7.89 0 0 1-1.42-3 17.3 17.3 0 0 1-.93-3.8Z" style="opacity:.31;fill:#c87421;mix-blend-mode:multiply"/><path d="M64.58 143.22a8.51 8.51 0 0 0 .3 1c.24.68.52 1.34.82 2a12 12 0 0 0 2.11 3.22 13.08 13.08 0 0 1-2-3.41c-.25-.61-.47-1.23-.68-1.85-.12-.36-.22-.74-.31-1.11a1.86 1.86 0 0 0-.27-.8.06.06 0 0 0-.09 0 1.74 1.74 0 0 0 .12.95ZM63 142.05a25 25 0 0 0 1.21 3.95 13.12 13.12 0 0 0 .79 1.7c.29.51.63 1 .94 1.5-.32-.5-.7-1-1-1.46a12.58 12.58 0 0 1-.93-1.92c-.25-.6-.47-1.21-.69-1.83a14.39 14.39 0 0 1-.62-1.89.17.17 0 0 1 .3-.05Zm-5.52 2a.1.1 0 0 1 .2 0c.14.55.21 1.12.33 1.67s.27 1.09.41 1.63a32.28 32.28 0 0 0 1 3.34 26.41 26.41 0 0 0 1.31 2.86c.27.51.57 1 .88 1.51a10.19 10.19 0 0 1 .82 1.3 5.9 5.9 0 0 1-.9-1.23c-.3-.45-.59-.92-.87-1.39a25.79 25.79 0 0 1-1.46-2.93 24.92 24.92 0 0 1-1-3.09c-.16-.6-.33-1.19-.47-1.8a5.78 5.78 0 0 1-.25-1.87Zm-.55 2.34a21.61 21.61 0 0 0 2.8 10.25s0 .06 0 0a17 17 0 0 1-2.12-4.76 24.43 24.43 0 0 1-.58-2.5 15.26 15.26 0 0 1-.34-3c-.05-.15.24-.16.24.01Zm4.67-3.84a31.24 31.24 0 0 0 1.18 4.26c.23.58.45 1.19.73 1.75a9.52 9.52 0 0 1 .84 1.53c-.31-.48-.63-1-.91-1.48a17.63 17.63 0 0 1-.84-1.88 25.57 25.57 0 0 1-1.22-4.14.13.13 0 0 1 .22-.04Zm-1.26.61a.1.1 0 0 1 .2 0c.12.53.12 1.12.21 1.67s.23 1.07.38 1.6a32.27 32.27 0 0 0 1.25 3.18 12.42 12.42 0 0 1-1.4-3.1c-.17-.54-.31-1.1-.43-1.66a6.33 6.33 0 0 1-.21-1.69Zm-1.45.64c.14.65.19 1.31.31 2a21.37 21.37 0 0 0 .5 2.1 30.46 30.46 0 0 0 1.62 4.19s-.06.08-.08 0a31.74 31.74 0 0 1-1.65-4 13.2 13.2 0 0 1-.86-4.27c0-.11.14-.1.16-.02ZM53 149a14.46 14.46 0 0 0 .31 2.53 14.74 14.74 0 0 0 .53 2.18 16 16 0 0 0 2 4 11.78 11.78 0 0 1-2.13-4 19.07 19.07 0 0 1-.55-2.1 14.06 14.06 0 0 1-.42-2.65c0-.15.26-.15.26.04Zm-.78-1.77a14.62 14.62 0 0 1 .08 2.39 19.3 19.3 0 0 0 .31 2.62 20.06 20.06 0 0 0 1.6 4.66c-.34-.75-.76-1.45-1.07-2.21a15.83 15.83 0 0 1-.68-2.42 17.68 17.68 0 0 1-.36-2.39 11.83 11.83 0 0 1 0-2.66.08.08 0 0 1 .16.01Zm-1.22 3.5a14.61 14.61 0 0 1 .12 2.39 20.75 20.75 0 0 0 .37 2.61 20.05 20.05 0 0 0 1.71 4.62c-.35-.74-.79-1.43-1.11-2.18a16.78 16.78 0 0 1-.74-2.41 19.09 19.09 0 0 1-.41-2.38 12.47 12.47 0 0 1-.09-2.66c.02-.08.15-.08.15.01Zm-.32-1.81a13.69 13.69 0 0 1-.48 2.34 21.17 21.17 0 0 0-.3 2.63 20.19 20.19 0 0 0 .5 4.9c-.16-.8-.42-1.57-.54-2.39a16.17 16.17 0 0 1-.11-2.51 17.39 17.39 0 0 1 .2-2.4 12.07 12.07 0 0 1 .57-2.6.08.08 0 0 1 .18.03Zm4.65-2.53c0-.18.19-.19.22 0 .09.64.09 1.29.17 1.93s.16 1.21.27 1.81.21 1.08.35 1.61a15 15 0 0 0 .64 1.66 7.83 7.83 0 0 1-1.12-3.11 17.1 17.1 0 0 1-.51-3.9Zm-1.06 2.21c0-.17.19-.18.22 0 .09.63.09 1.28.17 1.92s.16 1.21.27 1.81a16.39 16.39 0 0 0 .35 1.61 15.17 15.17 0 0 0 .64 1.67 7.72 7.72 0 0 1-1.12-3.11 17.1 17.1 0 0 1-.51-3.9Z" style="mix-blend-mode:screen;opacity:.4;fill:#c87421"/><path d="m64.31 136.88-15.12 8.21-.62.17-2.28-.18s1.37 5.36 1.91 7.21a.79.79 0 0 0 .49.49c.5.1 1.36.27 1.77.3a1.55 1.55 0 0 0 .83-.18c3.56-2.15 10.9-6.56 14.52-8.67a.69.69 0 0 0 .29-.8c-.36-1.43-1.79-6.55-1.79-6.55Z" style="fill:url(#linear-gradient-5)"/><path d="M48.57 145.32c-.54 0-1.58 0-2.17-.08a.12.12 0 0 1 0-.23c3.72-1.92 15.75-8.08 15.75-8.08l2.05-.07c.13 0 .23.11.12.17l-15.18 8.21a.8.8 0 0 1-.57.08Z" class="cls-17"/><path d="m48.57 145.26-2.17-.08a.12.12 0 0 1 0-.23c3.72-1.93 15.75-8.08 15.75-8.08l2.05-.08c.13 0 .23.11.12.17l-15.18 8.22a.87.87 0 0 1-.57.08Z" style="fill:#bebcbc"/><path d="M48.56 145.12c-.54 0-1.46 0-2.05-.05-.11 0-.16-.13 0-.19 3.73-1.93 15.37-8 15.37-8l2-.07c.13 0 .23.11.12.17-1.84 1-11.56 6.26-14.93 8.1a.9.9 0 0 1-.51.04Z" style="fill:#5b565a"/><path d="M46.69 146.28c.59 0 1.63.07 2.17.08a.87.87 0 0 0 .52-.08l15.21-8.22v.1l-15.21 8.22a.87.87 0 0 1-.52.08l-2.17-.08a.14.14 0 0 1-.12-.16.13.13 0 0 0 .12.06Z" class="cls-17"/><path d="M47.7 117.71a29.59 29.59 0 0 0 1.18 4.41c.57 1.59 1.26 3.14 1.9 4.71a26.2 26.2 0 0 1 1.52 4.61 12.48 12.48 0 0 1 .29 2.28 11.57 11.57 0 0 1-.16 2.35c0 .14 0 .27-.08.4s-.05.27-.09.39a5.44 5.44 0 0 1-.15.54c-.06.19-.12.38-.19.57a7.43 7.43 0 0 1-.48 1c-.38.7-.81 1.37-1.25 2s-.88 1.31-1.28 2a4.09 4.09 0 0 0-.25.46c0 .08-.09.19-.06.28s.06.26.1.4l.2.8h-2.42v-.11c-.08-.35-.17-.71-.26-1.06a.44.44 0 0 1 .06-.31 6.43 6.43 0 0 1 .51-.89c.43-.68.88-1.35 1.31-2a22.64 22.64 0 0 0 1.18-2 9.84 9.84 0 0 0 .72-2.25 12 12 0 0 0 0-4.71 25.9 25.9 0 0 0-1.5-4.64c-.63-1.55-1.32-3.08-1.89-4.66a29.78 29.78 0 0 1-1.22-4.44v-.15h2Z" class="cls-20"/><path d="M48.9 145h-2.42v-.11c-.08-.35-.17-.71-.26-1.06a.44.44 0 0 1 .06-.31 6.43 6.43 0 0 1 .51-.89l.06-.1 2.26.21c-.58.69-.43 1.09-.21 2.26Z" style="fill:url(#linear-gradient-6)"/><path d="M46.7 117.2c0 .31.43 1.72.76 3 1.63 6.29 5.8 11.51 3.49 18-.66 1.86-2.47 4.95-2.36 5.4l.31 1.4s15-8.09 15-8.1l-.29-1c-.11-.45-3.68-.51-4.94-1.39-4.37-3.05-3.42-10.51-5-17.38-.22-1-.4-1.56-.63-2.29Z" class="cls-20"/><path d="M46.87 117.19c.05.31.41 1.67.74 3 1.63 6.3 5.82 11.52 3.51 18-.66 1.86-2.59 5-2.48 5.46l.26 1.35s15-8.09 15-8.1l-.33-1c-.11-.45-3.69-.49-5-1.38-4.37-3-3.42-10.47-5-17.33-.22-1-.41-1.6-.63-2.33Z" style="fill:#f4cd9c"/><path d="M47 117.19c.05.3.39 1.62.72 2.9 1.62 6.3 5.85 11.52 3.54 18-.66 1.87-2.73 5.07-2.62 5.52l.26 1.39s15-8.09 15-8.1l-.37-1c-.11-.45-3.71-.48-5-1.36-4.37-3.05-3.43-10.43-5-17.3-.23-1-.42-1.63-.65-2.36Z" style="fill:#f2c994"/><path d="M47.21 117.18c0 .31.36 1.57.69 2.85 1.63 6.3 5.89 11.54 3.58 18.07-.66 1.86-2.86 5.13-2.75 5.58l.17 1.32s15-8.09 15-8.1l-.41-.92c-.11-.45-3.73-.47-5-1.35-4.37-3-3.43-10.4-5-17.27-.22-1-.43-1.66-.65-2.39Z" style="fill:#f0c48c"/><path d="M47.38 117.17c0 .31.34 1.53.67 2.81 1.63 6.3 5.92 11.54 3.61 18.07-.66 1.87-3 5.19-2.89 5.64l.13 1.31s15-8.09 15-8.1l-.45-.9c-.12-.45-3.75-.45-5-1.33-4.37-3-3.42-10.37-5-17.24-.22-1-.43-1.69-.66-2.42Z" style="fill:#eebf84"/><path d="M47.55 117.16c.06.31.32 1.48.65 2.77 1.62 6.29 5.95 11.54 3.64 18.08-.66 1.86-3.14 5.24-3 5.69l.06 1.3s15-8.09 15-8.1l-.5-.88c-.11-.45-3.75-.43-5-1.32-4.37-3-3.42-10.33-5-17.2-.22-1-.44-1.72-.66-2.45Z" style="fill:#edba7c"/><path d="M47.72 117.15c.06.31.29 1.44.62 2.72 1.63 6.3 6 11.56 3.67 18.09-.66 1.86-3.26 5.3-3.15 5.75v1.26s15-8.09 15-8.1l-.46-.87c-.11-.45-3.77-.42-5-1.3-4.37-3.05-3.42-10.3-5-17.17-.22-1-.45-1.75-.68-2.48Z" style="fill:#ebb674"/><path d="M47.89 117.15c.06.3.27 1.39.6 2.67 1.63 6.3 6 11.56 3.7 18.09-.66 1.87-3.4 5.36-3.28 5.81V145s15-8.09 15-8.1l-.58-.84c-.11-.45-3.79-.4-5-1.28-4.37-3.05-3.42-10.27-5-17.14-.22-1-.46-1.78-.68-2.51Z" style="fill:#e9b16c"/><path d="M48.06 117.14c.06.31.25 1.34.58 2.62 1.62 6.3 6 11.57 3.73 18.11-.66 1.86-3.53 5.41-3.42 5.86L48.9 145s15-8.09 15-8.1l-.62-.81c-.11-.45-3.81-.39-5.07-1.27-4.37-3-3.42-10.23-5-17.1-.22-1-.46-1.82-.69-2.55Z" style="fill:#e7ac64"/><path d="M48.23 117.13c.06.31.23 1.3.56 2.58 1.62 6.3 6.07 11.58 3.76 18.11-.66 1.86-3.67 5.47-3.55 5.92l-.1 1.26s15-8.09 15-8.1l-.66-.79c-.12-.45-3.83-.37-5.09-1.26-4.37-3-3.42-10.19-5-17.06-.22-1-.47-1.85-.69-2.58Z" style="fill:#e5a75c"/><path d="M44.81 112.19v-2c.1-2.2.29-2.74.82-2.93a22.65 22.65 0 0 1 2.74-.53.86.86 0 0 0-.73.55 3.47 3.47 0 0 0-.31 1 13.24 13.24 0 0 0-.15 2.18v2.23c0 .74.08 1.62.15 2.43a12.17 12.17 0 0 0 .56 2.71c-.56.14-2.49.3-2.57 0-.15-.85-.32-2.26-.39-3.06s-.12-1.73-.15-2.6c.03-.07.04.08.03.02Z" class="cls-31"/><path d="M46.34 111.27c0 2.16.19 6.56.48 6.67 1 .37 6.61-1.77 6.47-2.35a33.63 33.63 0 0 0-2.57-6.06s-.6-1-.91-1.52c-.67-1.06-1.3-1.4-1.81-1.21a2.94 2.94 0 0 0-1.53 2.41c-.1.79-.13 2.05-.13 2.06Z" class="cls-31"/><path d="M46.46 111.26c0 2.16.22 6.52.54 6.65.92.37 6.34-1.7 6.23-2.27a31.53 31.53 0 0 0-2.56-6.09s-.58-1-.89-1.5c-.64-1-1.24-1.37-1.75-1.18a2.75 2.75 0 0 0-1.46 2.35c-.09.78-.11 2.03-.11 2.04Z" style="fill:#0076b2"/><path d="M46.57 111.25c0 2.16.25 6.49.61 6.64.85.36 6.07-1.65 6-2.2a29.7 29.7 0 0 0-2.55-6.13s-.57-1-.87-1.48c-.61-1-1.18-1.33-1.69-1.14a2.56 2.56 0 0 0-1.38 2.29c-.1.77-.12 2.01-.12 2.02Z" style="fill:#0f6faa"/><path d="M46.68 111.24c0 2.16.29 6.45.67 6.62.79.36 5.81-1.58 5.76-2.12a28.23 28.23 0 0 0-2.54-6.17s-.55-1-.85-1.46c-.58-.93-1.12-1.28-1.63-1.1s-1.17.87-1.31 2.23c-.08.76-.1 1.99-.1 2Z" style="fill:#1b67a2"/><path d="M46.8 111.23c0 2.16.31 6.41.73 6.6.73.35 5.54-1.51 5.52-2 0-.89-1.73-4.83-2.53-6.21 0 0-.53-.94-.83-1.43-.56-.9-1.06-1.25-1.57-1.08s-1.1.82-1.24 2.18c-.07.71-.08 1.93-.08 1.94Z" style="fill:#22609b"/><path d="M46.91 111.23c0 2.15.35 6.36.8 6.58.67.33 5.26-1.45 5.28-2 0-.77-1.72-4.86-2.52-6.24 0 0-.52-.93-.82-1.42-.52-.86-1-1.21-1.5-1s-1 .75-1.16 2.12c-.07.73-.08 1.94-.08 1.96Z" style="fill:#285993"/><path d="M47 111.22c0 2.15.38 6.31.86 6.56s5-1.37 5-1.89-1.71-4.9-2.51-6.28c0 0-.5-.9-.8-1.4-.49-.81-.92-1.17-1.44-1s-1 .69-1.09 2.06c-.02.73-.02 1.93-.02 1.95Z" style="fill:#2c528c"/><path d="M47.14 111.21c0 2.16.41 6.27.92 6.54s4.7-1.3 4.81-1.81-1.7-4.94-2.5-6.32c0 0-.49-.88-.78-1.37-.46-.78-.86-1.14-1.38-1s-.91.63-1 2c-.07.75-.07 1.94-.07 1.96Z" style="fill:#2f4a85"/><path d="M47.26 111.2c0 2.16.44 6.22 1 6.53s4.4-1.25 4.58-1.74-1.7-5-2.51-6.36c0 0-.46-.85-.75-1.35-.43-.73-.8-1.09-1.32-.94s-.84.58-.94 1.94c-.07.72-.06 1.91-.06 1.92Z" style="fill:#32437e"/><path d="M47.37 111.19c0 2.16.48 6.17 1.05 6.51s4.08-1.19 4.34-1.66-1.69-5-2.5-6.39c0 0-.45-.84-.74-1.34-.4-.69-.73-1-1.25-.9s-.78.52-.87 1.88c-.04.65-.03 1.89-.03 1.9Z" style="fill:#343c77"/><g style="mask:url(#mask-3)"><path d="M47.06 107.69c-2.12.86-1 7.87-.38 10.33 1 3.87 4.88 11.15 5.1 15.15.14 2.59-1.18 6.71-3.13 9.91a16 16 0 0 0 3.61-9.69c0-4-3.73-11.51-5-15.34-.71-2.34-1.76-8.34-.2-10.36Z" style="opacity:.51;fill:url(#linear-gradient-7);mix-blend-mode:screen"/></g><path d="m46.68 146.25 2.17.08a.81.81 0 0 0 .52-.09L64.58 138v.1l-15.21 8.22a.86.86 0 0 1-.52.08c-.54 0-1.58 0-2.17-.08a.13.13 0 0 1-.12-.16.15.15 0 0 0 .12.09Z" class="cls-43"/><path d="M48 151.15c.6 0 1.71.27 2.25.28a.8.8 0 0 0 .52-.08c3.39-1.84 13.32-7.55 15.16-8.55s0 .07 0 .1c-1.84 1-11.77 6.72-15.16 8.56a.87.87 0 0 1-.52.08c-.54 0-1.65-.25-2.25-.28a.14.14 0 0 1-.11-.16.12.12 0 0 0 .11.05Z" class="cls-17"/><path d="M48 151.12c.59 0 1.7.27 2.24.28a.87.87 0 0 0 .52-.08c3.39-1.84 13.32-7.56 15.16-8.56s0 .07 0 .1c-1.84 1-11.77 6.71-15.16 8.55a.8.8 0 0 1-.52.08c-.54 0-1.65-.25-2.24-.28a.13.13 0 0 1-.12-.16.14.14 0 0 0 .12.07Z" class="cls-43"/><g style="mask:url(#mask-4)"><path d="M62.8 137.47c-1.24-1.49-4.72.09-7.67-5.34-1.81-3.33-1.92-11.31-2.67-15-.94-4.6-2.49-8.78-3.94-8.41s-1.13 6.14.29 9.76c1.55 3.94 4.17 10.6 4.92 14.29 1 4.92-3.16 8.82-3.1 11.19 1.21-.58 11.14-5.96 12.17-6.49Z" style="mix-blend-mode:overlay;fill:#1a1414;opacity:.38"/></g><path d="M50.15 113.38c-.59.45-1.37.09-1.76-.8a2.16 2.16 0 0 1 .36-2.43c.59-.45 1.37-.1 1.76.79a2.18 2.18 0 0 1-.36 2.44Z" class="cls-31"/><path d="M50.05 113.39c-.55.45-1.29.09-1.66-.81a2.23 2.23 0 0 1 .31-2.42c.55-.45 1.3-.09 1.67.81a2.21 2.21 0 0 1-.32 2.42Z" style="fill:url(#linear-gradient-8)"/><path d="m48.44 110.47.12.24a2.55 2.55 0 0 1-.05 2.12 1.15 1.15 0 0 1-.12-.25 2.45 2.45 0 0 1 .05-2.11Z" class="cls-17"/><path d="M64.31 136.88s1.22 4.33 1.69 6.12a11.71 11.71 0 0 1-5.87 3c-3.45.64-7.2 0-9.32-1.77Z" style="opacity:.36;mix-blend-mode:overlay;fill:#fff"/><path d="M144.57 163.19c-.58-.32-1.27 0-1.95-.05-.23 0-.46-.07-.54-.3s.09-.41.25-.58a1.82 1.82 0 0 1 2.79 0 .61.61 0 0 1 .13.71c-.13.22-.36.21-.68.22ZM148.48 152a2.51 2.51 0 0 1 .6-.24 3.82 3.82 0 0 0 3.37-2.7 6.9 6.9 0 0 1 2.86-.09c.55.06 1.1 0 1.65 0 1.18 0 2.35.07 3.53.13a.64.64 0 0 1 .56.48c.13.3-.05.49-.29.63s-.56.22-.47.64c.05.23.06.43.35.47a53.24 53.24 0 0 0 7.54 1.06h2.89a3.55 3.55 0 0 1 1.74.62c.75.45.63 1.27-.18 1.63a1.32 1.32 0 0 1-.64.13h-.67c-2.33-.18-4.64.33-7 .25a1 1 0 0 0-1.06.59h4.51a30.57 30.57 0 0 1 4.17.05.8.8 0 0 1 .75.66c.12.41-.26.56-.53.75a1.23 1.23 0 0 1-.75.15h-2c-1.14-.06-2.22.41-3.38.32-.53-.05-.91.59-1.52.55-.17 0-.22.26-.24.45a1.1 1.1 0 0 0 .37.89c.61.73.57.82-.38 1.1a2.71 2.71 0 0 1-.75.16 3.76 3.76 0 0 0-2.13.36c-.18.13-.5.06-.76.07a20.81 20.81 0 0 1-5.29-.3 30.72 30.72 0 0 1-3.68-1.26c-.21-.08-.58-.3-.5-.66a.64.64 0 0 1 .76-.51c.84.15 1.64-.35 2.5-.08.45.14.46-.38.49-.69s-.27-.39-.53-.37-.34.14-.52.16-.69.16-.86 0c-.79-.65-1.48-.25-2.25 0a4.54 4.54 0 0 1-1.87.11c-.55-.06-.84-.65-1.3-.94-.2-.12-.39-.25-.59-.07s-.1.39 0 .59c0 0 0 .05-.09.12a5.87 5.87 0 0 0-2.77-1.18 3.31 3.31 0 0 1-.53-.18.92.92 0 0 1-.66-1c.06-.61.48-.67 1-.65a8.14 8.14 0 0 0 2.12-.59 8.63 8.63 0 0 1 2-.32c1 0 1.08-.11.54-1a1.14 1.14 0 0 1-.11-.29Z" class="cls-9"/><path d="M152.91 89.6a.77.77 0 0 1-.75-.18.63.63 0 0 1 .75.18Z" style="fill:#1d1d1b"/><path d="M149.72 153.21c.11 0 .27.06.26.25a.4.4 0 0 1-.43.4c-.2 0-.4-.06-.36-.3s.24-.37.53-.35ZM144.69 155.16c0 .22 0 .49-.32.45s-.25-.24-.22-.43 0-.48.33-.44.18.26.21.42Z" class="cls-17"/><path d="M152.29 88.78h-45.67l-1.61 63.08h48.89l-1.61-63.08z" style="fill:url(#GradientFill_6);fill-rule:evenodd"/><path d="M112.66 151.86h4v-2.28c0-24.88-.89-45.06-2-45.06s-2 20.18-2 45.06Z" class="cls-50"/><path d="M142.91 88.78h-2.33c-.16 4.61-.25 10.22-.25 16.27 0 15.71.63 28.44 1.42 28.44s1.42-12.73 1.42-28.44c0-6.05-.1-11.66-.26-16.27Z" class="cls-51"/><path d="M152.29 88.78h-45.67l-.03 1.26h45.74l-.04-1.26z" style="fill:url(#GradientFill_5);fill-rule:evenodd"/><path d="M152.33 88.15h-45.74a.73.73 0 0 0-.7.75.73.73 0 0 0 .7.75h45.74a.73.73 0 0 0 .7-.75.73.73 0 0 0-.7-.75Z" style="fill:url(#GradientFill_4);fill-rule:evenodd"/><path d="M129.42 88.63c-20.3 0-22.66.07-22.66.15s.93.15 22.62.15 22.62-.06 22.62-.15-2.28-.15-22.58-.15Z" style="fill:url(#GradientFill_3);fill-rule:evenodd"/><path d="M152.33 88.15h-45.74a.7.7 0 0 0-.54.27h46.81a.69.69 0 0 0-.53-.27Z" style="fill:url(#GradientFill_2);fill-rule:evenodd"/><path d="M152.33 89.65h-45.74a.67.67 0 0 1-.54-.27h46.81a.66.66 0 0 1-.53.27Z" style="fill:url(#GradientFill_2-2);fill-rule:evenodd"/><path d="M153.83 152.2h-48.74l-.03-1.26h48.8l-.03 1.26z" style="fill:url(#GradientFill_5-2);fill-rule:evenodd"/><path d="M153.91 152.83H105a.73.73 0 0 1-.7-.75.73.73 0 0 1 .7-.75h48.9a.73.73 0 0 1 .7.75.73.73 0 0 1-.69.75Z" style="fill:url(#GradientFill_4-2);fill-rule:evenodd"/><path d="M129.42 152.35c-21.66 0-24.18-.11-24.18-.24s1-.25 24.14-.25 24.13.11 24.13.25-2.43.24-24.09.24Z" style="fill:url(#GradientFill_3-2);fill-rule:evenodd"/><path d="M153.86 152.83h-48.81a.74.74 0 0 1-.57-.27h50a.73.73 0 0 1-.62.27Z" style="fill:url(#GradientFill_2-3);fill-rule:evenodd"/><path d="M153.86 151.33h-48.81a.77.77 0 0 0-.57.27h50a.76.76 0 0 0-.62-.27Z" style="fill:url(#GradientFill_2-4);fill-rule:evenodd"/><path d="M130.77 90.72a4.61 4.61 0 0 1 1.1 3.73c-.06.9-.59 3.23.28 3.84 1.28.9.84-3.84.91-4.35.44-3.57 2 .8 2.19 2.47s-1.28 10.11.25 11.17c2.81 2 1.26-7.64 1.16-8.5-.15-1.36-1.06-5.32.16-6.25 1.54-1.15 1 2.27 2.23 3 1 .58 1.4-.46 1.81-1.25s.85-1.22 1.5-.39c.53.68.11 1.86.69 2.49.78.86 1.16-.84 2-.23 1.44 1.07.34 3.55.18 5-.12 1.1.08 3.18 1.58 2.6 1.84-.71.61-3.26.54-4.64 0-.89-.61-5 .28-5.56 1.27-.74.66 2.12.94 2.54a2.17 2.17 0 0 0 .59.65c.3.2 1.28-2.18 2.5-1 .76.72.53 3.23.54 4.18 0 4.4-.27 8.55 0 13 .09 1.6 0 5.78 2.33 5.41 3.32-.51.2-6.53-.21-8.3a20.24 20.24 0 0 1-.46-3.47 119.1 119.1 0 0 1-.39-13.23c.09-1.63 1.36-3.84 0-5.19-1.68-1.68-4.94-.94-7-1-3.77-.13-7.49.53-11.27.54-3.09 0-6.17-.85-9.27-.85a19.49 19.49 0 0 0-4.58.17c-.41.11-2.77.91-1.13 1.1 1.37.16 2.71 0 4.07.21a18.39 18.39 0 0 1 4.45.94 5.51 5.51 0 0 1 2.03 1.17Z" style="fill-rule:evenodd;fill:#2a418e"/><path d="M154.49 118.51c1.35-.2 1.63-1.32 1.47-2.7-.21.32-.31.88-.61 1.11a1.3 1.3 0 0 1-1.63-.16c-1.75-1.57-1-5.88-1-8 0-2.83-.12-5.62-.2-8.42 0-1.37.32-4.46-1.18-5-.67-.25-1.79.7-2.22.06-.54-.82.48-1.94-1-2.39-2.53-.78-1.18 5.27-1.24 6.47 0 .48-.42 3-1.18 1.89-.45-.68.29-2.65.29-3.48s-.17-2-.88-2.4c-.95-.53-1.69.6-2.17-.73-.35-1-.59-1.9-1.83-1.31-.61.28-1.2 1.8-1.77.51-.33-.77.07-1.48-.8-2a1.71 1.71 0 0 0-2.2.53c-.9 1-.62 2.43-.42 3.63a44.05 44.05 0 0 1 .52 4.44c.09 1.82.89 4.41.19 6.16-.51 1.3-1.4.45-1.43-.57s.2-2.22.2-3.36v-6.51c0-1-.22-5-2.06-3.95-1.46.87 0 3.81-1.29 4.92-.58-.37-.05-1.61 0-2.14a8.17 8.17 0 0 0 .06-2.47 4.21 4.21 0 0 0-2.81-3.38 20.51 20.51 0 0 0-5.32-1 20.79 20.79 0 0 1-3.25-.31 2.59 2.59 0 0 1-.65-.24c-.53.25-.84.54.06.65 1.37.16 2.71 0 4.07.21a18.39 18.39 0 0 1 4.45.94c1.92.73 2.73 2.13 2.91 4.3.1 1.18-.31 2.38-.15 3.54.19 1.45 1.12 1.85 1.5.29.3-1.19-.05-2.43.1-3.62.44-3.57 2 .8 2.19 2.47.24 1.9-.25 4-.37 5.91 0 .57-.63 8.23 1.52 6.46.81-.67.73-2.63.77-3.63a36.3 36.3 0 0 0-.51-6.07c-.15-1.36-1.06-5.32.16-6.25 1.54-1.15 1 2.27 2.23 3 1 .58 1.4-.46 1.81-1.25s.85-1.22 1.5-.39c.53.68.11 1.86.69 2.49.78.86 1.16-.84 2-.23 1.44 1.07.34 3.55.18 5-.12 1.1.08 3.18 1.58 2.6 1.84-.71.61-3.26.54-4.64 0-.89-.61-5 .28-5.56 1.52-.89 0 4 1.63 3.8 1-.15 1.09-2.88 2.4-1.62.76.72.53 3.23.54 4.18 0 4.4-.27 8.55 0 13 .09 1.41-.04 5.59 2.33 5.22Z" style="fill:#2b418c;fill-rule:evenodd"/><path d="M153.43 93.51c.09-1.63 1.36-3.84 0-5.19-1.68-1.68-4.94-.94-7-1-3.77-.13-7.49.53-11.27.54-3.09 0-6.17-.85-9.27-.85a21.94 21.94 0 0 0-4.29.11 19.27 19.27 0 0 0 3.31.58 44 44 0 0 1 6.46 1.3c.89.32 1.4 1 2.21 1.48 1.24.65 2.24 0 3.4-.51a6.89 6.89 0 0 1 3.78-.43 12.92 12.92 0 0 0 3.3.58c1.47-.14 2.7-.84 4.21-.54a4.57 4.57 0 0 1 3 1.87c.72 1.1.66 4 2.09 4.45 0-.79.02-1.59.07-2.39Z" class="cls-9"/><path d="M155.27 115.36a4.72 4.72 0 0 0-.28-1.18c-.26-.79-.52-1.59-.73-2.39a22.53 22.53 0 0 1-.48-2.31c-.12-.78-.13-1.57-.19-2.36a11.27 11.27 0 0 0 .1 2.17c.09.76.2 1.51.34 2.27s.29 1.52.46 2.27c.08.37.18.73.27 1.09a2.78 2.78 0 0 1 .06.58c0 .17-.06.32-.06.49s.25.35.41.16a1.18 1.18 0 0 0 .1-.79ZM136.14 106.5l-.18-.1c-.1-.06-.12-.21-.13-.32a7.39 7.39 0 0 1 0-.94v-4.64c0-.06-.11-.07-.11 0 0 1.3-.14 2.58-.23 3.87 0 .54-.1 1.09-.09 1.63s.19.91.65.92a.23.23 0 0 0 .09-.42ZM149.78 95.12a1.48 1.48 0 0 1-.16-.58 2.47 2.47 0 0 0 0-.61 2.16 2.16 0 0 0-.51-1 1.36 1.36 0 0 0-1.76-.15 1.79 1.79 0 0 1 1-.13 1.21 1.21 0 0 1 .76.81 2.18 2.18 0 0 1 .13 1.1c0 .33.07.68.4.75.06.03.19-.07.14-.19ZM146.3 100.65c-.17-.12-.12-.42-.11-.61 0-.54.1-1.07.16-1.61a3.29 3.29 0 0 0-.58-2.72s-.08 0-.06.06a3.94 3.94 0 0 1 .34.72 2.47 2.47 0 0 1 .09.86 12.22 12.22 0 0 1-.19 1.48c-.07.44-.13.88-.18 1.33s0 .86.46 1a.22.22 0 0 0 .21-.09c.12-.18-.01-.34-.14-.42ZM153.11 88.68a3.19 3.19 0 0 0-1.74-1c-.05 0-.07.06 0 .08a2.88 2.88 0 0 1 1.46 1.24 2.55 2.55 0 0 1 .22.82 4.3 4.3 0 0 1-.14 1.07.25.25 0 0 0 .48.14 2.45 2.45 0 0 0-.28-2.35ZM140.11 93.79c-.14-.06-.25-.06-.33-.21a1.27 1.27 0 0 1-.11-.38 6.06 6.06 0 0 0-.16-.61c0-.09-.16 0-.14 0 .07.32 0 .68 0 1a.64.64 0 0 0 .66.57.23.23 0 0 0 .08-.37ZM132 96.14a.53.53 0 0 0-.07.66.16.16 0 0 0 .17 0 .18.18 0 0 0 .07 0s.07-.13.05-.14 0-.15 0-.19a.42.42 0 0 1 .06-.19c.02-.16-.2-.28-.28-.14ZM149.26 88.08a5.89 5.89 0 0 0-2.25-.24c-.8 0-1.6.08-2.39.14-1.74.14-3.46.4-5.19.54a33.51 33.51 0 0 1-4.7 0 23.09 23.09 0 0 1-4.59-.72s0 0 0 .06a21.55 21.55 0 0 0 4.5.79 31.26 31.26 0 0 0 4.74.06c1.69-.1 3.37-.33 5-.45.78-.05 1.56-.08 2.34-.1a10.85 10.85 0 0 1 2.41.2c.2.06.3-.22.13-.28Z" class="cls-17"/><path d="M131.27 113.47H92.81l-1.36 49.7h41.18l-1.36-49.7z" style="fill:url(#GradientFill_6-2);fill-rule:evenodd"/><path d="M97.89 163.17h3.34v-1.79c0-19.61-.75-35.51-1.68-35.51s-1.67 15.9-1.67 35.51Z" class="cls-50"/><path d="M123.37 113.46h-2c-.14 3.64-.22 8.06-.22 12.83 0 12.38.54 22.41 1.2 22.41s1.19-10 1.19-22.41c.04-4.77-.04-9.19-.17-12.83Z" class="cls-51"/><path d="M131.27 113.47H92.81l-.03.98h38.52l-.03-.98z" style="fill:url(#GradientFill_5-3);fill-rule:evenodd"/><path d="M131.3 113H92.78a.58.58 0 0 0-.59.59.59.59 0 0 0 .59.59h38.52a.6.6 0 0 0 .59-.59.59.59 0 0 0-.59-.59Z" style="fill:url(#GradientFill_4-3);fill-rule:evenodd"/><path d="M112 113.34c-17.1 0-19.09.06-19.09.12s.79.12 19 .12 19.06 0 19.06-.12-1.87-.12-18.97-.12Z" style="fill:url(#GradientFill_3-3);fill-rule:evenodd"/><path d="M131.3 113H92.78a.59.59 0 0 0-.45.21h39.42a.59.59 0 0 0-.45-.21Z" style="fill:url(#GradientFill_2-5);fill-rule:evenodd"/><path d="M131.3 114.15H92.78a.59.59 0 0 1-.45-.21h39.42a.59.59 0 0 1-.45.21Z" style="fill:url(#GradientFill_2-6);fill-rule:evenodd"/><path d="M132.56 163.44H91.52l-.03-.99h41.1l-.03.99z" style="fill:url(#GradientFill_5-4);fill-rule:evenodd"/><path d="M132.63 163.94H91.45a.59.59 0 0 1-.59-.59.59.59 0 0 1 .59-.59h41.18a.6.6 0 0 1 .59.59.6.6 0 0 1-.59.59Z" style="fill:url(#GradientFill_4-4);fill-rule:evenodd"/><path d="M112 163.57c-18.24 0-20.37-.09-20.37-.2s.84-.2 20.33-.2 20.33.09 20.33.2-2.05.2-20.29.2Z" style="fill:url(#GradientFill_3-4);fill-rule:evenodd"/><path d="M132.59 163.94h-41.1a.62.62 0 0 1-.48-.21h42.06a.63.63 0 0 1-.48.21Z" style="fill:url(#GradientFill_2-7);fill-rule:evenodd"/><path d="M132.59 162.76h-41.1a.62.62 0 0 0-.49.24h42.06a.63.63 0 0 0-.47-.24Z" style="fill:url(#GradientFill_2-8);fill-rule:evenodd"/><path d="M113.15 115a3.51 3.51 0 0 1 .92 2.94c0 .71-.5 2.54.24 3 1.08.71.71-3 .76-3.42.37-2.82 1.68.63 1.85 2s-1.08 8 .21 8.8c2.36 1.54 1.06-6 1-6.7-.14-1.08-.9-4.2.13-4.92 1.3-.91.85 1.78 1.87 2.32s1.19-.36 1.53-1 .71-1 1.26-.3.1 1.47.58 2c.66.67 1-.66 1.67-.18 1.22.84.29 2.8.16 3.91-.11.86.06 2.5 1.33 2.05 1.55-.56.51-2.57.45-3.66 0-.7-.51-4 .23-4.38 1.08-.59.56 1.67.8 2a1.74 1.74 0 0 0 .5.51c.25.16 1.07-1.71 2.1-.79.64.56.45 2.54.45 3.29 0 3.47-.22 6.74 0 10.23.08 1.26 0 4.55 2 4.27 2.79-.41.17-5.16-.18-6.55a14.83 14.83 0 0 1-.38-2.73 86.42 86.42 0 0 1-.33-10.43c.07-1.28 1.14-3 0-4.09-1.42-1.32-4.17-.74-5.91-.79-3.18-.1-6.31.42-9.49.43-2.6 0-5.19-.67-7.81-.67a17.08 17.08 0 0 0-3.85.14c-.35.08-2.34.71-1 .86 1.15.12 2.28 0 3.42.16a17 17 0 0 1 3.75.74 4.85 4.85 0 0 1 1.74.96Z" class="cls-75"/><path d="M133.12 136.9c1.14-.17 1.38-1.05 1.24-2.13-.18.24-.26.69-.52.87a1.14 1.14 0 0 1-1.37-.13c-1.47-1.23-.83-4.63-.83-6.3 0-2.22-.09-4.43-.16-6.63 0-1.08.27-3.51-1-4-.56-.2-1.5.55-1.86 0s.4-1.53-.82-1.88c-2.14-.61-1 4.15-1 5.1 0 .38-.35 2.38-1 1.49-.38-.53.25-2.09.24-2.74s-.14-1.58-.74-1.9c-.79-.41-1.42.48-1.83-.57-.29-.77-.49-1.49-1.53-1-.52.23-1 1.43-1.5.41-.28-.61.06-1.17-.67-1.61a1.49 1.49 0 0 0-1.86.41c-.75.77-.51 1.92-.35 2.86a31.45 31.45 0 0 1 .44 3.51c.07 1.42.75 3.46.16 4.84-.43 1-1.18.36-1.2-.45s.17-1.74.17-2.64v-5.13c0-.82-.19-4-1.74-3.11-1.23.68 0 3-1.09 3.87-.49-.29 0-1.26 0-1.68a6.37 6.37 0 0 0 0-2 3.38 3.38 0 0 0-2.37-2.66 17.94 17.94 0 0 0-4.48-.8 19.24 19.24 0 0 1-2.74-.24 2.35 2.35 0 0 1-.55-.2c-.44.21-.71.44.06.52 1.15.12 2.28 0 3.42.16a17 17 0 0 1 3.75.74 3.5 3.5 0 0 1 2.45 3.4c.09.93-.26 1.87-.13 2.79.17 1.14 1 1.45 1.27.22a20.88 20.88 0 0 0 .08-2.85c.37-2.82 1.68.63 1.85 2a24.41 24.41 0 0 1-.32 4.66c0 .44-.52 6.48 1.29 5.08.68-.53.61-2.07.65-2.86a29.49 29.49 0 0 0-.43-4.78c-.14-1.08-.9-4.2.13-4.92 1.3-.91.85 1.78 1.87 2.32s1.19-.36 1.53-1 .71-1 1.26-.3.1 1.47.58 2c.66.67 1-.66 1.67-.18 1.22.84.29 2.8.16 3.91-.11.86.06 2.5 1.33 2.05 1.55-.56.51-2.57.45-3.66 0-.7-.51-4 .23-4.38 1.29-.7 0 3.18 1.38 3 .83-.11.91-2.27 2-1.27.64.56.45 2.54.45 3.29 0 3.47-.22 6.74 0 10.23.1 1.26-.02 4.55 1.98 4.27Z" class="cls-75"/><path d="M132.23 117.19c.07-1.28 1.14-3 0-4.09-1.42-1.32-4.17-.74-5.91-.79-3.18-.1-6.31.42-9.49.43-2.6 0-5.19-.67-7.81-.67a18.91 18.91 0 0 0-3.61.09 18.21 18.21 0 0 0 2.79.45 39.47 39.47 0 0 1 5.44 1c.75.26 1.17.83 1.86 1.17 1 .51 1.89 0 2.86-.41a6.18 6.18 0 0 1 3.19-.33 12 12 0 0 0 2.77.46c1.25-.11 2.28-.67 3.55-.43a3.86 3.86 0 0 1 2.52 1.47c.61.87.56 3.16 1.76 3.51.02-.6.04-1.23.08-1.86Z" class="cls-76"/><path d="M126.22 122.82c-.14-.09-.1-.34-.09-.48 0-.43.08-.85.14-1.27a2.44 2.44 0 0 0-.5-2.14s-.06 0 0 0a3.06 3.06 0 0 1 .29.57 1.92 1.92 0 0 1 .07.67 9.14 9.14 0 0 1-.16 1.17q-.09.53-.15 1.05c0 .33 0 .68.38.77a.18.18 0 0 0 .18-.07c.06-.09-.04-.21-.16-.27ZM133.78 134.41a3.74 3.74 0 0 0-.24-.93c-.22-.62-.44-1.25-.61-1.88a16.14 16.14 0 0 1-.41-1.83c-.09-.61-.11-1.23-.16-1.85a7.43 7.43 0 0 0 .08 1.7c.08.6.17 1.2.29 1.79s.24 1.2.38 1.8c.07.28.16.57.23.85a2.32 2.32 0 0 1 .06.46c0 .13-.06.26-.06.39a.19.19 0 0 0 .34.13.91.91 0 0 0 .1-.63ZM117.66 127.43s-.1-.05-.14-.08-.1-.17-.12-.25 0-.51 0-.74v-3.66h-.09c0 1-.12 2-.19 3a11.17 11.17 0 0 0-.12 1.3c0 .34.16.71.54.72a.18.18 0 0 0 .12-.29ZM132 113.39a2.73 2.73 0 0 0-1.47-.77s-.06 0 0 .06a2.41 2.41 0 0 1 1.25.94 1.82 1.82 0 0 1 .19.64 3.42 3.42 0 0 1-.12.85c0 .25.3.32.4.11a1.8 1.8 0 0 0-.25-1.83ZM129.16 118.46a1 1 0 0 1-.16-.46 1.71 1.71 0 0 0-.46-1.27 1.19 1.19 0 0 0-1.48-.12 1.6 1.6 0 0 1 .84-.1 1 1 0 0 1 .64.64 1.62 1.62 0 0 1 .11.87.49.49 0 0 0 .33.59c.1.02.21-.06.18-.15ZM121 117.41c-.11 0-.21 0-.28-.16a1.11 1.11 0 0 1-.09-.31 4.34 4.34 0 0 0-.14-.48c0-.07-.13 0-.11 0 .06.26 0 .54 0 .8a.53.53 0 0 0 .56.45.18.18 0 0 0 .06-.3ZM114.17 119.26c-.11.16-.2.36-.06.52a.14.14 0 0 0 .15 0h.06c.06 0 .06-.09 0-.1s0-.12 0-.16a.3.3 0 0 1 .05-.15c.06-.12-.12-.2-.2-.11Z" class="cls-17"/><path d="M128.72 112.91a5.29 5.29 0 0 0-1.9-.19c-.67 0-1.34.06-2 .11-1.46.12-2.92.32-4.38.43a30.62 30.62 0 0 1-4 0 20.31 20.31 0 0 1-3.87-.57s0 0 0 .05a19.36 19.36 0 0 0 3.79.63 28 28 0 0 0 4 0c1.42-.08 2.83-.26 4.25-.35.66 0 1.31-.07 2-.09a9.88 9.88 0 0 1 2 .17c.16.08.25-.1.11-.19Z" class="cls-76"/><path d="M144.5 163.36c-.58-.32-1.27 0-1.95 0-.23 0-.46-.07-.54-.3s.08-.42.24-.58a1.83 1.83 0 0 1 2.8 0 .6.6 0 0 1 .12.7c-.12.19-.35.18-.67.18Z" class="cls-9"/></g></g></g></svg>